STARTFONT 2.1
COMMENT 
COMMENT Converted from TrueType font "cour.ttf" by "ttf2bdf.exe 2.2".
COMMENT 
FONT -FreeType-Courier New-Medium-R-Normal--21-120-128-128-P-98-ISO10646-1
SIZE 12 128 128
FONTBOUNDINGBOX 30 70 -2 -12
STARTPROPERTIES 27
FAMILY_NAME "Courier New"
DEFAULT_CHAR -1
FOUNDRY "FreeType"
COPYRIGHT "Typeface © The Monotype Corporation plc. Data © The Monotype Corporation plc/Type Solutions Inc. 1990-1994. All Rights Reserved"
CODEPAGE "MS Windows 1250 Central European"
ENC_MODE 2
CREATION_YEAR 2001
WEIGHT_NAME "Medium"
SLANT "R"
SETWIDTH_NAME "Normal"
SPACING "P"
HI_VERSION 1
FONTNAME_REGISTRY "-"
CHARSET_REGISTRY "ISO10646"
CHARSET_ENCODING "1"
BREAK_CHAR 32
PIXEL_SIZE 21
POINT_SIZE 120
FONT_ASCENT 58
FONT_DESCENT 6
RESOLUTION_X 128
RESOLUTION_Y 128
AVERAGE_WIDTH 98
X_HEIGHT 30
CAP_HEIGHT 46
_TTF_FONTFILE "cour.ttf"
_TTF_PSNAME "CourierNewPSMT"
ENDPROPERTIES
CHARS 191
STARTCHAR 0020.uni0020
ENCODING 32
SWIDTH 1124 0
DWIDTH 24 0
BBX 0 0 0 0
BITMAP
ENDCHAR
STARTCHAR 0021.uni0021
ENCODING 33
SWIDTH 1218 0
DWIDTH 26 0
BBX 10 46 8 0
BITMAP
3F00
3F00
3F00
3F00
3F00
3F00
3F00
3F00
3F00
3F00
3F00
3F00
3F00
3F00
3F00
3F00
3F00
3F00
3F00
3F00
3F00
3F00
3F00
3F00
3F00
3F00
3F00
3F00
3F00
3F00
3F00
3F00
0000
0000
0000
0000
3F00
3F00
FFC0
FFC0
FFC0
FFC0
FFC0
FFC0
3F00
3F00
ENDCHAR
STARTCHAR 0022.uni0022
ENCODING 34
SWIDTH 1218 0
DWIDTH 26 0
BBX 22 16 2 30
BITMAP
FFCFFC00
FFCFFC00
FFCFFC00
FFCFFC00
FFCFFC00
FFCFFC00
3F03F000
3F03F000
3F03F000
3F03F000
3F03F000
3F03F000
0C00C000
0C00C000
0C00C000
0C00C000
ENDCHAR
STARTCHAR 0023.uni0023
ENCODING 35
SWIDTH 1218 0
DWIDTH 26 0
BBX 28 42 -2 -4
BITMAP
00FC0FC0
00FC0FC0
00FC0FC0
00FC0FC0
00FC0FC0
00FC0FC0
00FC0FC0
00FC0FC0
00FC0FC0
00FC0FC0
3FFFFFF0
3FFFFFF0
3FFFFFF0
3FFFFFF0
3FFFFFF0
3FFFFFF0
03F03F00
03F03F00
03F03F00
03F03F00
03F03F00
03F03F00
03F03F00
03F03F00
FFFFFFC0
FFFFFFC0
FFFFFFC0
FFFFFFC0
FFFFFFC0
FFFFFFC0
0FC0FC00
0FC0FC00
0FC0FC00
0FC0FC00
0FC0FC00
0FC0FC00
0FC0FC00
0FC0FC00
0FC0FC00
0FC0FC00
0FC0FC00
0FC0FC00
ENDCHAR
STARTCHAR 0024.uni0024
ENCODING 36
SWIDTH 1218 0
DWIDTH 26 0
BBX 26 64 0 -8
BITMAP
00F3C000
00F3C000
00F3C000
00F3C000
00F3C000
00F3C000
00F3C000
00F3C000
00F3C000
00F3C000
00FFC000
03FFE000
0FFFFC00
1FFFFE00
3FFFFF00
7FF3FF80
FFF3FFC0
FFF3FFC0
FEF3DFC0
FCF3CFC0
FCF3C000
FCF3C000
FCF3C000
FEF3C000
FFF3C000
FFF3C000
7FF3C000
3FF3C000
1FFFC000
0FFFC000
03FFC000
00FFF000
00FFFC00
00FFFE00
00FFFF00
00FFFF00
00F3FF80
00F3FF80
00F3FFC0
00F3FFC0
00F3DFC0
00F3CFC0
FCF3CFC0
FCF3CFC0
FCF3CFC0
FEF3DFC0
FFF3FFC0
FFF3FFC0
7FF3FF80
3FF3FF00
3FFFFF00
3FFFFF00
1FFFFE00
0FFFFC00
03FFF000
00FFC000
00F3C000
00F3C000
00F3C000
00F3C000
00F3C000
00F3C000
00F3C000
00F3C000
ENDCHAR
STARTCHAR 0025.uni0025
ENCODING 37
SWIDTH 1218 0
DWIDTH 26 0
BBX 29 35 -1 -2
BITMAP
03F00000
0FFC0000
1FFE0000
1FFE0000
3F3F0000
3E1F0000
3C0F03C0
3C0F07E0
3E1F0FE0
3F3F1FE0
1FFE3FE0
1FFE7FC0
0FFCFF80
03F1FF00
0003FE00
0007FC00
000FF800
001FF000
003FE000
007FC000
00FF8000
01FF1F80
03FE7FE0
07FCFFF0
0FF8FFF0
1FF1F9F8
3FE1F0F8
7FC1E078
FF81E078
FF01F0F8
FE01F9F8
FC00FFF0
7800FFF0
00007FE0
00001F80
ENDCHAR
STARTCHAR 0026.uni0026
ENCODING 38
SWIDTH 1218 0
DWIDTH 26 0
BBX 26 45 0 0
BITMAP
03FC0000
0FFF0000
1FFF8000
3FFFC000
3FFFC000
7F0FE000
7E07F000
FC03F000
FC03F000
F801F000
F801F000
F803F000
F803F000
F807E000
FC0FE000
7C1FC000
7E3F8000
7F7F0000
3FFE0000
1FFC0000
1FF80000
0FF007C0
07F00FC0
07F80FC0
0FFC1FC0
0FFC1F80
1FFE3F00
3FFF3F00
3FFFBF00
3F3FFE00
7E1FFC00
FC0FFC00
FC07FC00
FC03F800
FC01F800
FC01F800
FC03FC00
FE07FC00
FF0FFE00
FFFFFFC0
7FFFFFC0
7FFFDFC0
3FFF9FC0
0FFE0FC0
03FC0FC0
ENDCHAR
STARTCHAR 0027.uni0027
ENCODING 39
SWIDTH 1218 0
DWIDTH 26 0
BBX 10 16 8 30
BITMAP
FFC0
FFC0
FFC0
FFC0
FFC0
FFC0
7F80
7F80
7F80
3F00
3F00
3F00
1E00
1E00
0C00
0C00
ENDCHAR
STARTCHAR 0028.uni0028
ENCODING 40
SWIDTH 1218 0
DWIDTH 26 0
BBX 10 58 10 -6
BITMAP
03C0
07C0
0FC0
0FC0
0FC0
1FC0
1FC0
1FC0
3F80
3F80
3F80
3F80
7F00
7F00
7F00
7F00
FE00
FE00
FE00
FE00
FC00
FC00
FC00
FC00
FC00
FC00
FC00
FC00
FC00
FC00
FC00
FC00
FC00
FC00
FC00
FC00
FC00
FC00
FE00
FE00
FE00
FE00
7F00
7F00
7F00
7F00
3F80
3F80
3F80
3F80
1FC0
1FC0
1FC0
0FC0
0FC0
0FC0
07C0
03C0
ENDCHAR
STARTCHAR 0029.uni0029
ENCODING 41
SWIDTH 1218 0
DWIDTH 26 0
BBX 10 58 10 -6
BITMAP
F000
F800
FC00
FC00
FC00
FE00
FE00
FE00
7F00
7F00
7F00
7F00
3F80
3F80
3F80
3F80
1FC0
1FC0
1FC0
1FC0
1FC0
0FC0
0FC0
0FC0
0FC0
0FC0
0FC0
0FC0
0FC0
0FC0
0FC0
0FC0
0FC0
0FC0
0FC0
0FC0
0FC0
0FC0
1FC0
1FC0
1FC0
1FC0
3F80
3F80
3F80
3F80
7F00
7F00
7F00
7F00
FE00
FE00
FE00
FC00
FC00
FC00
F800
F000
ENDCHAR
STARTCHAR 002A.uni002A
ENCODING 42
SWIDTH 1218 0
DWIDTH 26 0
BBX 22 22 2 8
BITMAP
00FC0000
70FC3800
78FC7800
7CFCF800
3EFDF000
1FFFE000
0FFFC000
07FF8000
FFFFFC00
FFFFFC00
FFFFFC00
FFFFFC00
FFFFFC00
FFFFFC00
07FF8000
0FFFC000
1FFFE000
3EFDF000
7CFCF800
78FC7800
70FC3800
00FC0000
ENDCHAR
STARTCHAR 002B.uni002B
ENCODING 43
SWIDTH 1218 0
DWIDTH 26 0
BBX 22 26 2 2
BITMAP
00FC0000
00FC0000
00FC0000
00FC0000
00FC0000
00FC0000
00FC0000
00FC0000
00FC0000
00FC0000
FFFFFC00
FFFFFC00
FFFFFC00
FFFFFC00
FFFFFC00
FFFFFC00
00FC0000
00FC0000
00FC0000
00FC0000
00FC0000
00FC0000
00FC0000
00FC0000
00FC0000
00FC0000
ENDCHAR
STARTCHAR 002C.uni002C
ENCODING 44
SWIDTH 1218 0
DWIDTH 26 0
BBX 16 20 0 -8
BITMAP
03FF
03FF
03FF
03FF
07FF
07FF
07FE
07FC
0FF8
0FF8
1FF0
1FF0
3FE0
3FC0
7F80
7F80
FF00
FF00
FE00
FC00
ENDCHAR
STARTCHAR 002D.uni002D
ENCODING 45
SWIDTH 1218 0
DWIDTH 26 0
BBX 22 8 2 14
BITMAP
FFFFFC00
FFFFFC00
FFFFFC00
FFFFFC00
FFFFFC00
FFFFFC00
FFFFFC00
FFFFFC00
ENDCHAR
STARTCHAR 002E.uni002E
ENCODING 46
SWIDTH 1218 0
DWIDTH 26 0
BBX 10 10 8 0
BITMAP
3F00
7F80
FFC0
FFC0
FFC0
FFC0
FFC0
FFC0
7F80
3F00
ENDCHAR
STARTCHAR 002F.uni002F
ENCODING 47
SWIDTH 1218 0
DWIDTH 26 0
BBX 26 46 0 0
BITMAP
00000FC0
00000FC0
00001FC0
00001FC0
00003FC0
00003FC0
00007F80
00007F80
0000FF00
0000FF00
0001FE00
0001FE00
0003FC00
0003FC00
0007F800
0007F800
000FF000
000FF000
001FE000
001FE000
003FC000
003FC000
007F8000
007F8000
00FF0000
00FF0000
01FE0000
01FE0000
03FC0000
03FC0000
07F80000
07F80000
0FF00000
0FF00000
1FE00000
1FE00000
3FC00000
3FC00000
7F800000
7F800000
FF000000
FF000000
FE000000
FE000000
FC000000
FC000000
ENDCHAR
STARTCHAR 0030.uni0030
ENCODING 48
SWIDTH 1218 0
DWIDTH 26 0
BBX 26 46 0 0
BITMAP
03FFF000
07FFF800
0FFFFC00
1FFFFE00
3FFFFF00
3FFFFF00
7FC0FF80
7F807F80
FF003FC0
FE001FC0
FE001FC0
FC000FC0
FC000FC0
FC000FC0
FC000FC0
FC000FC0
FC000FC0
FC000FC0
FC000FC0
FC000FC0
FC000FC0
FC000FC0
FC000FC0
FC000FC0
FC000FC0
FC000FC0
FC000FC0
FC000FC0
FC000FC0
FC000FC0
FC000FC0
FC000FC0
FC000FC0
FC000FC0
FC000FC0
FC000FC0
FE001FC0
FE001FC0
7F003F80
7F807F80
3FFFFF00
3FFFFF00
1FFFFE00
0FFFFC00
07FFF800
03FFF000
ENDCHAR
STARTCHAR 0031.uni0031
ENCODING 49
SWIDTH 1218 0
DWIDTH 26 0
BBX 24 46 0 0
BITMAP
00FF0000
00FF0000
01FF0000
01FF0000
03FF0000
03FF0000
07FF0000
07FF0000
0FFF0000
0FFF0000
1FBF0000
1FBF0000
3F3F0000
3F3F0000
7E3F0000
7E3F0000
FC3F0000
FC3F0000
F83F0000
F83F0000
003F0000
003F0000
003F0000
003F0000
003F0000
003F0000
003F0000
003F0000
003F0000
003F0000
003F0000
003F0000
003F0000
003F0000
003F0000
003F0000
003F0000
003F0000
003F0000
003F0000
3FFFFF00
3FFFFF00
3FFFFF00
3FFFFF00
3FFFFF00
3FFFFF00
ENDCHAR
STARTCHAR 0032.uni0032
ENCODING 50
SWIDTH 1218 0
DWIDTH 26 0
BBX 26 46 0 0
BITMAP
00FFC000
01FFE000
03FFF000
07FFF800
0FFFFC00
1FFFFE00
3FC1FF00
3F80FF00
7F007F80
7F003F80
FE001FC0
FE001FC0
FC000FC0
FC000FC0
00000FC0
00000FC0
00001F80
00003F80
00007F80
0000FF00
0001FE00
0003FC00
0007F800
000FF000
001FE000
001FC000
003F8000
007F8000
00FF0000
01FE0000
03FC0000
03F80000
07F00000
0FF00000
1FE00000
3FC00000
7FC003C0
FF8003C0
FF0003C0
FF0003C0
FFFFFFC0
FFFFFFC0
FFFFFFC0
FFFFFFC0
FFFFFFC0
FFFFFFC0
ENDCHAR
STARTCHAR 0033.uni0033
ENCODING 51
SWIDTH 1218 0
DWIDTH 26 0
BBX 26 46 0 0
BITMAP
00FFC000
03FFF000
0FFFFC00
1FFFFE00
3FFFFF00
3FFFFF00
7FC0FF80
FF807F80
FF003FC0
FE001FC0
00000FC0
00000FC0
00000FC0
00000FC0
00000FC0
00000FC0
00001FC0
00003F80
00007F00
0000FF00
000FFE00
000FFC00
000FFC00
000FFC00
000FFC00
000FFE00
0000FF00
00007F80
00003FC0
00001FC0
00000FC0
00000FC0
00000FC0
00000FC0
00000FC0
00000FC0
FE001FC0
FF003FC0
FF807F80
7FC0FF80
3FFFFF00
3FFFFF00
1FFFFE00
0FFFFC00
03FFF000
00FFC000
ENDCHAR
STARTCHAR 0034.uni0034
ENCODING 52
SWIDTH 1218 0
DWIDTH 26 0
BBX 26 46 0 0
BITMAP
0000FF00
0000FF00
0001FF00
0001FF00
0003FF00
0007FF00
000FFC00
000FFC00
001FFC00
001FFC00
003FFC00
007FFC00
00FFFC00
00FFFC00
01FCFC00
01FCFC00
03F8FC00
07F8FC00
0FF0FC00
0FE0FC00
1FE0FC00
1FC0FC00
3F80FC00
7F00FC00
FFFFFFC0
FFFFFFC0
FFFFFFC0
FFFFFFC0
FFFFFFC0
FFFFFFC0
0000FC00
0000FC00
0000FC00
0000FC00
0000FC00
0000FC00
0000FC00
0000FC00
0000FC00
0000FC00
0003FF00
0003FF00
0003FF00
0003FF00
0003FF00
0003FF00
ENDCHAR
STARTCHAR 0035.uni0035
ENCODING 53
SWIDTH 1218 0
DWIDTH 26 0
BBX 26 46 0 0
BITMAP
FFFFFFC0
FFFFFFC0
FFFFFFC0
FFFFFFC0
FFFFFFC0
FFFFFFC0
FC000000
FC000000
FC000000
FC000000
FC000000
FC000000
FC000000
FC000000
FC000000
FC000000
FCFFC000
FDFFF000
FDFFFC00
FFFFFE00
FFFFFF00
FFFFFF00
FF80FF80
FF007F80
FF003FC0
FE003FC0
FC001FC0
FC001FC0
00000FC0
00000FC0
00000FC0
00000FC0
00000FC0
00000FC0
FC000FC0
FC000FC0
FC000FC0
FE001FC0
FF003F80
FF807F80
7FFFFF00
3FFFFF00
1FFFFE00
0FFFFC00
03FFF000
00FFC000
ENDCHAR
STARTCHAR 0036.uni0036
ENCODING 54
SWIDTH 1218 0
DWIDTH 26 0
BBX 26 46 0 0
BITMAP
00FFC000
03FFF000
0FFFFC00
1FFFFE00
3FFFFF00
3FFFFF80
7F803FC0
7F001FC0
FE000FC0
FE000FC0
FC0007C0
FC0007C0
FC000000
FC000000
FC000000
FC000000
FC000000
FC000000
FC000000
FC000000
FCFFC000
FDFFF800
FFFFFE00
FFFFFF00
FFFFFF00
FFFFFF00
FFC07F80
FF003F80
FE001FC0
FE001FC0
FC000FC0
FC000FC0
FC000FC0
FC000FC0
FC000FC0
FC000FC0
FE001FC0
FE001FC0
7F003F80
7FC07F00
3FFFFF00
3FFFFF00
1FFFFE00
0FFFFC00
07FFF800
00FFC000
ENDCHAR
STARTCHAR 0037.uni0037
ENCODING 55
SWIDTH 1218 0
DWIDTH 26 0
BBX 26 46 0 0
BITMAP
FFFFFFC0
FFFFFFC0
FFFFFFC0
FFFFFFC0
FFFFFFC0
FFFFFFC0
FC003F80
FC003F80
FC007F00
FC007F00
0000FE00
0000FE00
0001FC00
0001FC00
0003F800
0003F800
0007F000
0007F000
000FE000
000FE000
001FC000
001FC000
003F8000
003F8000
007F0000
007F0000
00FE0000
00FE0000
01FC0000
01FC0000
03F80000
03F80000
07F00000
07F00000
0FE00000
0FE00000
1FC00000
1FC00000
3F800000
3F800000
7F000000
7F000000
7F000000
7F000000
7F000000
7F000000
ENDCHAR
STARTCHAR 0038.uni0038
ENCODING 56
SWIDTH 1218 0
DWIDTH 26 0
BBX 26 46 0 0
BITMAP
00FFC000
07FFF800
0FFFFC00
1FFFFE00
3FFFFF00
3FFFFF80
7FC0FF80
7F003F80
FE001FC0
FE001FC0
FC000FC0
FC000FC0
FC000FC0
FC000FC0
FC000FC0
FC000FC0
FE001FC0
FE001FC0
7F003F80
3FC0FF00
3FFFFF00
1FFFFE00
0FFFFC00
0FFFFC00
0FFFFC00
1FFFFE00
3FC0FF00
3F003F00
7E001F00
7E001F00
FC000F80
FC000F80
FC000FC0
FC000FC0
FC000FC0
FC000FC0
FE001FC0
FE001FC0
7F003F80
7FC0FF80
3FFFFF00
3FFFFF00
1FFFFE00
0FFFFC00
03FFF000
00FFC000
ENDCHAR
STARTCHAR 0039.uni0039
ENCODING 57
SWIDTH 1218 0
DWIDTH 26 0
BBX 26 46 0 0
BITMAP
00FFC000
07FFF800
0FFFFC00
1FFFFE00
3FFFFF00
3FFFFF00
3F80FF80
7F003F80
FE001FC0
FE001FC0
FC000FC0
FC000FC0
FC000FC0
FC000FC0
FC000FC0
FC000FC0
FE001FC0
FE001FC0
7F003FC0
7F80FFC0
3FFFFFC0
3FFFFFC0
3FFFFFC0
1FFFFFC0
07FFEFC0
00FFCFC0
00000FC0
00000FC0
00000FC0
00000FC0
00000FC0
00000FC0
00000FC0
00000FC0
F8000FC0
F8000FC0
FC001FC0
FC001FC0
FE003F80
FF007F80
7FFFFF00
3FFFFF00
1FFFFE00
0FFFFC00
03FFF000
00FFC000
ENDCHAR
STARTCHAR 003A.uni003A
ENCODING 58
SWIDTH 1218 0
DWIDTH 26 0
BBX 10 26 8 4
BITMAP
3F00
7F80
FFC0
FFC0
FFC0
FFC0
FFC0
FFC0
7F80
3F00
0000
0000
0000
0000
0000
0000
3F00
7F80
FFC0
FFC0
FFC0
FFC0
FFC0
FFC0
7F80
3F00
ENDCHAR
STARTCHAR 003B.uni003B
ENCODING 59
SWIDTH 1218 0
DWIDTH 26 0
BBX 16 36 0 -8
BITMAP
00FC
01FE
03FF
03FF
03FF
03FF
03FF
03FF
01FE
00FC
0000
0000
0000
0000
0000
0000
03FF
03FF
03FF
03FF
07FF
07FF
07FE
07FC
0FF8
0FF8
1FF0
1FF0
3FE0
3FC0
7F80
7F80
FF00
FF00
FE00
FC00
ENDCHAR
STARTCHAR 003C.uni003C
ENCODING 60
SWIDTH 1218 0
DWIDTH 26 0
BBX 26 30 0 0
BITMAP
000000C0
000003C0
00000FC0
00003FC0
0000FFC0
0003FFC0
000FFFC0
003FFF00
00FFFC00
03FFF000
0FFFC000
3FFF0000
FFFC0000
FFF00000
FFC00000
FFC00000
FFF00000
FFFC0000
3FFF0000
0FFFC000
03FFF000
00FFFC00
003FFF00
000FFFC0
0003FFC0
0000FFC0
00003FC0
00000FC0
000003C0
000000C0
ENDCHAR
STARTCHAR 003D.uni003D
ENCODING 61
SWIDTH 1218 0
DWIDTH 26 0
BBX 22 18 2 10
BITMAP
FFFFFC00
FFFFFC00
FFFFFC00
FFFFFC00
FFFFFC00
FFFFFC00
00000000
00000000
00000000
00000000
00000000
00000000
FFFFFC00
FFFFFC00
FFFFFC00
FFFFFC00
FFFFFC00
FFFFFC00
ENDCHAR
STARTCHAR 003E.uni003E
ENCODING 62
SWIDTH 1218 0
DWIDTH 26 0
BBX 26 30 0 0
BITMAP
C0000000
F0000000
FC000000
FF000000
FFC00000
FFF00000
FFFC0000
3FFF0000
0FFFC000
03FFF000
00FFFC00
003FFF00
000FFFC0
0003FFC0
0000FFC0
0000FFC0
0003FFC0
000FFFC0
003FFF00
00FFFC00
03FFF000
0FFFC000
3FFF0000
FFFC0000
FFF00000
FFC00000
FF000000
FC000000
F0000000
C0000000
ENDCHAR
STARTCHAR 003F.uni003F
ENCODING 63
SWIDTH 1218 0
DWIDTH 26 0
BBX 26 46 0 0
BITMAP
00FFC000
03FFF000
0FFFFC00
1FFFFE00
3FFFFF00
3FFFFF00
7F007F80
7E003F80
FE001FC0
FC000FC0
FC000FC0
FC000FC0
00000FC0
00000FC0
00000FC0
00001FC0
00003FC0
00007F80
0000FF00
0001FE00
0003FC00
0007F800
000FF000
001FE000
003FC000
003F8000
003F0000
003F0000
003F0000
003F0000
003F0000
003F0000
00000000
00000000
00000000
00000000
003F0000
007F8000
00FFC000
00FFC000
00FFC000
00FFC000
00FFC000
00FFC000
007F8000
003F0000
ENDCHAR
STARTCHAR 0040.uni0040
ENCODING 64
SWIDTH 1218 0
DWIDTH 26 0
BBX 26 38 0 0
BITMAP
00FFC000
03FFE000
0FFFF000
1FFFF800
3FFFFC00
7FFFFE00
7F83FF00
7E01FF00
FE007F80
FC003F80
FC07FFC0
FC1FFFC0
FC1FFFC0
FC1FFFC0
FC3F0FC0
FC3E07C0
FC3C03C0
FC3C03C0
FC3C03C0
FC3C03C0
FC3E07C0
FC3F0FC0
FC3FFFC0
FC3FFFC0
FC1FFF80
FC1FFF80
FC07FE00
FC03FC00
FE000000
FF000000
FF800000
FFC00000
7FFFF000
3FFFF000
1FFFF000
0FFFF000
07FFF000
03FFF000
ENDCHAR
STARTCHAR 0041.uni0041
ENCODING 65
SWIDTH 1218 0
DWIDTH 26 0
BBX 30 46 -2 0
BITMAP
000FC000
000FC000
000FC000
001FE000
001FE000
001FE000
003FF000
003FF000
003FF000
003FF000
007FF800
007FF800
007FF800
007FF800
00FCFC00
00FCFC00
00FCFC00
00FCFC00
01F87E00
01F87E00
01F87E00
01F87E00
03F03F00
03F03F00
03F03F00
03F03F00
07E01F80
07E01F80
07E01F80
07E01F80
0FFFFFC0
0FFFFFC0
0FFFFFC0
1FFFFFE0
1FFFFFE0
1FFFFFE0
3F8007F0
3F8007F0
3F8007F0
7F0003F8
FFC00FFC
FFC00FFC
FFC00FFC
FFC00FFC
FFC00FFC
FFC00FFC
ENDCHAR
STARTCHAR 0042.uni0042
ENCODING 66
SWIDTH 1218 0
DWIDTH 26 0
BBX 26 46 0 0
BITMAP
FFFF0000
FFFFC000
FFFFE000
FFFFE000
3FFFF000
3FFFF800
3F03FC00
3F01FC00
3F00FC00
3F00FC00
3F00FC00
3F00FC00
3F00FC00
3F00FC00
3F01FC00
3F03FC00
3FFFF800
3FFFF000
3FFFE000
3FFFE000
3FFFFC00
3FFFFE00
3F01FF00
3F00FF80
3F007FC0
3F001FC0
3F000FC0
3F000FC0
3F000FC0
3F000FC0
3F000FC0
3F000FC0
3F000FC0
3F000FC0
3F000FC0
3F000FC0
3F000FC0
3F001FC0
3F007F80
3F00FF80
3FFFFF80
3FFFFF00
FFFFFE00
FFFFFC00
FFFFF000
FFFFC000
ENDCHAR
STARTCHAR 0043.uni0043
ENCODING 67
SWIDTH 1218 0
DWIDTH 26 0
BBX 26 46 0 0
BITMAP
003F0000
00FFC000
03FFF000
07FFF800
0FFFFC00
0FFFFC00
1FC0FE00
1F807E00
3F807F00
3F003F00
3F003F00
7F003F80
7E001F80
7E001F80
FC000FC0
FC000FC0
FC000000
FC000000
FC000000
FC000000
FC000000
FC000000
FC000000
FC000000
FC000000
FC000000
FC000000
FC000000
FC000000
FC000000
FC000FC0
FC000FC0
7E001F80
7E001F80
7F003F80
3F003F00
3F003F00
3F807F00
1F807E00
1FC0FE00
0FFFFC00
0FFFFC00
07FFF800
03FFF000
00FFC000
003F0000
ENDCHAR
STARTCHAR 0044.uni0044
ENCODING 68
SWIDTH 1218 0
DWIDTH 26 0
BBX 26 46 0 0
BITMAP
FFFF0000
FFFFC000
FFFFF000
FFFFF800
FFFFFC00
FFFFFC00
3F00FE00
3F007E00
3F007F00
3F003F00
3F003F00
3F003F80
3F001F80
3F001F80
3F000FC0
3F000FC0
3F000FC0
3F000FC0
3F000FC0
3F000FC0
3F000FC0
3F000FC0
3F000FC0
3F000FC0
3F000FC0
3F000FC0
3F000FC0
3F000FC0
3F000FC0
3F000FC0
3F000FC0
3F000FC0
3F001F80
3F001F80
3F003F80
3F003F00
3F003F00
3F007F00
3F007E00
3F00FE00
FFFFFC00
FFFFFC00
FFFFF800
FFFFF000
FFFFC000
FFFF0000
ENDCHAR
STARTCHAR 0045.uni0045
ENCODING 69
SWIDTH 1218 0
DWIDTH 26 0
BBX 26 46 0 0
BITMAP
FFFFFFC0
FFFFFFC0
FFFFFFC0
FFFFFFC0
FFFFFFC0
FFFFFFC0
3F0003C0
3F0003C0
3F000000
3F000000
3F000000
3F000000
3F000000
3F000000
3F000000
3F000000
3F003C00
3F003C00
3FFFFC00
3FFFFC00
3FFFFC00
3FFFFC00
3FFFFC00
3FFFFC00
3F003C00
3F003C00
3F000000
3F000000
3F000000
3F000000
3F000000
3F000000
3F000000
3F000000
3F000000
3F000000
3F0003C0
3F0003C0
3F0003C0
3F0003C0
FFFFFFC0
FFFFFFC0
FFFFFFC0
FFFFFFC0
FFFFFFC0
FFFFFFC0
ENDCHAR
STARTCHAR 0046.uni0046
ENCODING 70
SWIDTH 1218 0
DWIDTH 26 0
BBX 26 46 0 0
BITMAP
FFFFFFC0
FFFFFFC0
FFFFFFC0
FFFFFFC0
FFFFFFC0
FFFFFFC0
3F0003C0
3F0003C0
3F000000
3F000000
3F000000
3F000000
3F000000
3F000000
3F000000
3F000000
3F003C00
3F003C00
3FFFFC00
3FFFFC00
3FFFFC00
3FFFFC00
3FFFFC00
3FFFFC00
3F003C00
3F003C00
3F000000
3F000000
3F000000
3F000000
3F000000
3F000000
3F000000
3F000000
3F000000
3F000000
3F000000
3F000000
3F000000
FFFC0000
FFFC0000
FFFC0000
FFFC0000
FFFC0000
FFFC0000
FFFC0000
ENDCHAR
STARTCHAR 0047.uni0047
ENCODING 71
SWIDTH 1218 0
DWIDTH 26 0
BBX 26 46 0 0
BITMAP
003F0000
00FFC000
03FFF000
07FFF800
0FFFFC00
0FFFFC00
1FC0FE00
1F807E00
3F807F00
3F003F00
3F003F00
7F003F80
7E001F80
7E001F80
FC000FC0
FC000FC0
FC000000
FC000000
FC000000
FC000000
FC000000
FC000000
FC000000
FC03FFC0
FC03FFC0
FC03FFC0
FC03FFC0
FC03FFC0
FC03FFC0
FC03FFC0
FC000FC0
FC000FC0
7E001F80
7E001F80
7F003F80
3F003F00
3F003F00
3F807F00
1F807E00
1FC0FE00
0FFFFC00
0FFFFC00
07FFF800
03FFF000
00FFC000
003F0000
ENDCHAR
STARTCHAR 0048.uni0048
ENCODING 72
SWIDTH 1218 0
DWIDTH 26 0
BBX 26 46 0 0
BITMAP
FFC0FFC0
FFC0FFC0
FFC0FFC0
FFC0FFC0
FFC0FFC0
FFC0FFC0
3F003F00
3F003F00
3F003F00
3F003F00
3F003F00
3F003F00
3F003F00
3F003F00
3F003F00
3F003F00
3F003F00
3F003F00
3F003F00
3F003F00
3FFFFF00
3FFFFF00
3FFFFF00
3FFFFF00
3FFFFF00
3FFFFF00
3F003F00
3F003F00
3F003F00
3F003F00
3F003F00
3F003F00
3F003F00
3F003F00
3F003F00
3F003F00
3F003F00
3F003F00
3F003F00
3F003F00
FFC0FFC0
FFC0FFC0
FFC0FFC0
FFC0FFC0
FFC0FFC0
FFC0FFC0
ENDCHAR
STARTCHAR 0049.uni0049
ENCODING 73
SWIDTH 1218 0
DWIDTH 26 0
BBX 26 46 0 0
BITMAP
FFFFFFC0
FFFFFFC0
FFFFFFC0
FFFFFFC0
FFFFFFC0
FFFFFFC0
003F0000
003F0000
003F0000
003F0000
003F0000
003F0000
003F0000
003F0000
003F0000
003F0000
003F0000
003F0000
003F0000
003F0000
003F0000
003F0000
003F0000
003F0000
003F0000
003F0000
003F0000
003F0000
003F0000
003F0000
003F0000
003F0000
003F0000
003F0000
003F0000
003F0000
003F0000
003F0000
003F0000
003F0000
FFFFFFC0
FFFFFFC0
FFFFFFC0
FFFFFFC0
FFFFFFC0
FFFFFFC0
ENDCHAR
STARTCHAR 004A.uni004A
ENCODING 74
SWIDTH 1218 0
DWIDTH 26 0
BBX 26 46 0 0
BITMAP
FFFFFFC0
FFFFFFC0
FFFFFFC0
FFFFFFC0
FFFFFFC0
FFFFFFC0
FC000FC0
FC000FC0
FC000FC0
FC000FC0
FC000FC0
FC000FC0
00000FC0
00000FC0
00000FC0
00000FC0
00000FC0
00000FC0
00000FC0
00000FC0
00000FC0
00000FC0
00000FC0
00000FC0
00000FC0
00000FC0
00000FC0
00000FC0
00000FC0
00000FC0
FC000FC0
FC000FC0
FC000FC0
FC000FC0
FC000FC0
FC000FC0
FE001FC0
FE001FC0
FF807FC0
7FC0FF80
7FFFFF80
3FFFFF00
1FFFFE00
0FFFFC00
03FFF000
00FFC000
ENDCHAR
STARTCHAR 004B.uni004B
ENCODING 75
SWIDTH 1218 0
DWIDTH 26 0
BBX 27 46 0 0
BITMAP
FFC1FFC0
FFC1FFC0
FFC1FFC0
FFC1FFC0
3F007F00
3F007F00
3F00FE00
3F00FE00
3F01FC00
3F01FC00
3F03F800
3F03F800
3F07F000
3F07F000
3F0FE000
3F0FE000
3F1FC000
3F1FC000
3F3F8000
3F3F8000
3F7F0000
3F7F0000
3FFF0000
3FFF8000
3FFF8000
3FFFC000
3FFFC000
3FFFE000
3FF7E000
3FF3F000
3FE3F000
3FE1F800
3FC1F800
3FC0FC00
3F80FC00
3F807E00
3F007E00
3F003F00
3F003F00
3F001F80
3F001F80
FFC07FE0
FFC07FE0
FFC07FE0
FFC07FE0
FFC07FE0
ENDCHAR
STARTCHAR 004C.uni004C
ENCODING 76
SWIDTH 1218 0
DWIDTH 26 0
BBX 26 46 0 0
BITMAP
FFF00000
FFF00000
FFF00000
FFF00000
FFF00000
3F000000
3F000000
3F000000
3F000000
3F000000
3F000000
3F000000
3F000000
3F000000
3F000000
3F000000
3F000000
3F000000
3F000000
3F000000
3F000000
3F000000
3F000000
3F000000
3F000000
3F000000
3F000000
3F000000
3F000000
3F000000
3F000000
3F000000
3F000000
3F000000
3F000000
3F000000
3F000000
3F000000
3F0003C0
3F0003C0
FFFFFFC0
FFFFFFC0
FFFFFFC0
FFFFFFC0
FFFFFFC0
FFFFFFC0
ENDCHAR
STARTCHAR 004D.uni004D
ENCODING 77
SWIDTH 1218 0
DWIDTH 26 0
BBX 26 46 0 0
BITMAP
FFC0FFC0
FFC0FFC0
FFC0FFC0
FFC0FFC0
FFC0FFC0
FFC0FFC0
3F807F00
3F807F00
3FC0FF00
3FC0FF00
3FE1FF00
3FE1FF00
3FFFFF00
3FFFFF00
3FFFFF00
3FFFFF00
3FFFFF00
3FFFFF00
3F7FBF00
3F7FBF00
3F7FBF00
3F3F3F00
3F3F3F00
3F3F3F00
3F1E3F00
3F0C3F00
3F0C3F00
3F003F00
3F003F00
3F003F00
3F003F00
3F003F00
3F003F00
3F003F00
3F003F00
3F003F00
3F003F00
3F003F00
3F003F00
3F003F00
FFC0FFC0
FFC0FFC0
FFC0FFC0
FFC0FFC0
FFC0FFC0
FFC0FFC0
ENDCHAR
STARTCHAR 004E.uni004E
ENCODING 78
SWIDTH 1218 0
DWIDTH 26 0
BBX 26 46 0 0
BITMAP
FFC0FFC0
FFC0FFC0
FFC0FFC0
FFC0FFC0
FFC0FFC0
FFC0FFC0
3F803F00
3F803F00
3FC03F00
3FC03F00
3FE03F00
3FE03F00
3FF03F00
3FF03F00
3FF83F00
3FF83F00
3FFC3F00
3FFC3F00
3FFE3F00
3FFE3F00
3F7F3F00
3F7F3F00
3F3FBF00
3F3FBF00
3F1FFF00
3F1FFF00
3F0FFF00
3F0FFF00
3F07FF00
3F07FF00
3F03FF00
3F03FF00
3F01FF00
3F01FF00
3F00FF00
3F00FF00
3F007F00
3F007F00
3F003F00
3F003F00
FFC0FFC0
FFC0FFC0
FFC0FFC0
FFC0FFC0
FFC0FFC0
FFC0FFC0
ENDCHAR
STARTCHAR 004F.uni004F
ENCODING 79
SWIDTH 1218 0
DWIDTH 26 0
BBX 26 46 0 0
BITMAP
003F0000
00FFC000
03FFF000
07FFF800
0FFFFC00
0FFFFC00
1FC0FE00
1F807E00
3F807F00
3F003F00
3F003F00
7F003F80
7E001F80
7E001F80
FC000FC0
FC000FC0
FC000FC0
FC000FC0
FC000FC0
FC000FC0
FC000FC0
FC000FC0
FC000FC0
FC000FC0
FC000FC0
FC000FC0
FC000FC0
FC000FC0
FC000FC0
FC000FC0
FC000FC0
FC000FC0
7E001F80
7E001F80
7F003F80
3F003F00
3F003F00
3F807F00
1F807E00
1FC0FE00
0FFFFC00
0FFFFC00
07FFF800
03FFF000
00FFC000
003F0000
ENDCHAR
STARTCHAR 0050.uni0050
ENCODING 80
SWIDTH 1218 0
DWIDTH 26 0
BBX 26 46 0 0
BITMAP
FFFFC000
FFFFF000
FFFFFC00
FFFFFE00
FFFFFF00
FFFFFF00
3F00FF80
3F003F80
3F001FC0
3F000FC0
3F000FC0
3F000FC0
3F000FC0
3F000FC0
3F000FC0
3F000FC0
3F000FC0
3F001FC0
3F001F80
3F007F80
3FFFFF00
3FFFFF00
3FFFFE00
3FFFFC00
3FFFF000
3FFFC000
3F000000
3F000000
3F000000
3F000000
3F000000
3F000000
3F000000
3F000000
3F000000
3F000000
3F000000
3F000000
3F000000
3F000000
FFC00000
FFC00000
FFC00000
FFC00000
FFC00000
FFC00000
ENDCHAR
STARTCHAR 0051.uni0051
ENCODING 81
SWIDTH 1218 0
DWIDTH 26 0
BBX 26 46 0 0
BITMAP
003F0000
00FFC000
03FFF000
07FFF800
0FFFFC00
0FFFFC00
1FC0FE00
1F807E00
3F807F00
3F003F00
3F003F00
7F003F80
7E001F80
7E001F80
FC000FC0
FC000FC0
FC000FC0
FC000FC0
FC000FC0
FC000FC0
FC000FC0
FC000FC0
FC000FC0
FC000FC0
FC000FC0
FC000FC0
FC000FC0
FC000FC0
FC000FC0
FC000FC0
FC000FC0
FC000FC0
7E001F80
7E039F80
7F07FF80
3F07FF00
3F07FF00
3F83FF00
1F81FE00
1FC0FF00
0FFFFF80
0FFFFFC0
07FFFFC0
03FFF3C0
00FFC1C0
003F00C0
ENDCHAR
STARTCHAR 0052.uni0052
ENCODING 82
SWIDTH 1218 0
DWIDTH 26 0
BBX 26 46 0 0
BITMAP
FFFFC000
FFFFF000
FFFFFC00
FFFFFE00
FFFFFF00
FFFFFF00
3F00FF80
3F003F80
3F001FC0
3F000FC0
3F000FC0
3F000FC0
3F000FC0
3F000FC0
3F000FC0
3F000FC0
3F000FC0
3F001FC0
3F001F80
3F007F80
3FFFFF00
3FFFFF00
3FFFFE00
3FFFFC00
3FFFF000
3FFFF000
3F03F800
3F03F800
3F01F800
3F01F800
3F01FC00
3F01FC00
3F00FC00
3F00FC00
3F00FE00
3F007E00
3F007E00
3F007E00
3F003F00
3F003F00
FFC0FFC0
FFC0FFC0
FFC0FFC0
FFC0FFC0
FFC0FFC0
FFC0FFC0
ENDCHAR
STARTCHAR 0053.uni0053
ENCODING 83
SWIDTH 1218 0
DWIDTH 26 0
BBX 26 46 0 0
BITMAP
00FFC000
0FFFF800
1FFFFC00
3FFFFF00
7FFFFF80
7FFFFF80
FF003FC0
FE001FC0
FC000FC0
FC000FC0
FC000000
FC000000
FC000000
FC000000
FE000000
FF800000
7FE00000
3FF00000
1FFC0000
0FFF0000
03FFC000
00FFF000
003FFC00
000FFE00
0007FF00
0003FF80
00007FC0
00003FC0
00001FC0
00000FC0
00000FC0
00000FC0
FC000FC0
FC000FC0
FC000FC0
FC000FC0
FE000FC0
FE001FC0
7F001F80
7FC03F80
3FFFFF80
3FFFFF00
1FFFFE00
0FFFFC00
07FFF800
03FFF000
ENDCHAR
STARTCHAR 0054.uni0054
ENCODING 84
SWIDTH 1218 0
DWIDTH 26 0
BBX 26 46 0 0
BITMAP
FFFFFFC0
FFFFFFC0
FFFFFFC0
FFFFFFC0
FFFFFFC0
FFFFFFC0
FC3F0FC0
FC3F0FC0
003F0000
003F0000
003F0000
003F0000
003F0000
003F0000
003F0000
003F0000
003F0000
003F0000
003F0000
003F0000
003F0000
003F0000
003F0000
003F0000
003F0000
003F0000
003F0000
003F0000
003F0000
003F0000
003F0000
003F0000
003F0000
003F0000
003F0000
003F0000
003F0000
003F0000
003F0000
003F0000
03FFF000
03FFF000
03FFF000
03FFF000
03FFF000
03FFF000
ENDCHAR
STARTCHAR 0055.uni0055
ENCODING 85
SWIDTH 1218 0
DWIDTH 26 0
BBX 30 46 -2 0
BITMAP
FFC00FFC
FFC00FFC
FFC00FFC
FFC00FFC
3F0003F0
3F0003F0
3F0003F0
3F0003F0
3F0003F0
3F0003F0
3F0003F0
3F0003F0
3F0003F0
3F0003F0
3F0003F0
3F0003F0
3F0003F0
3F0003F0
3F0003F0
3F0003F0
3F0003F0
3F0003F0
3F0003F0
3F0003F0
3F0003F0
3F0003F0
3F0003F0
3F0003F0
3F0003F0
3F0003F0
3F0003F0
3F0003F0
3F0003F0
3F0003F0
3F0003F0
3F0003F0
3F8007F0
3F8007F0
1F8007E0
1FC00FE0
1FFFFFE0
0FFFFFC0
0FFFFFC0
07FFFF80
03FFFF00
00FFFC00
ENDCHAR
STARTCHAR 0056.uni0056
ENCODING 86
SWIDTH 1218 0
DWIDTH 26 0
BBX 30 46 -2 0
BITMAP
FFC00FFC
FFC00FFC
FFC00FFC
FFC00FFC
3F0003F0
3F0003F0
3F0003F0
3F0003F0
1F8007E0
1F8007E0
1F8007E0
1F8007E0
0FC00FC0
0FC00FC0
0FC00FC0
0FC00FC0
07E01F80
07E01F80
07E01F80
07F03F80
03F03F00
03F03F00
03F87F00
03F87F00
01F87E00
01F87E00
01FCFE00
01FCFE00
00FCFC00
00FCFC00
00FFFC00
00FFFC00
007FF800
007FF800
007FF800
007FF800
003FF000
003FF000
003FF000
003FF000
001FE000
001FE000
001FE000
000FC000
000FC000
000FC000
ENDCHAR
STARTCHAR 0057.uni0057
ENCODING 87
SWIDTH 1218 0
DWIDTH 26 0
BBX 30 46 -2 0
BITMAP
FFC00FFC
FFC00FFC
FFC00FFC
FFC00FFC
3F0003F0
3F0003F0
3F0003F0
3F0003F0
3F0003F0
3F0003F0
3F0003F0
3F0003F0
3F0003F0
3F0003F0
1F8007E0
1F8007E0
1F8007E0
1F8007E0
1F8007E0
1F8007E0
1F8007E0
1F8007E0
1F8787E0
0FC78FC0
0FC78FC0
0FCFCFC0
0FCFCFC0
0FCFCFC0
0FFFFFC0
07FFFF80
07FFFF80
07FFFF80
07FFFF80
07FFFF80
03FFFF00
03FFFF00
03FCFF00
03FCFF00
03FCFF00
03FCFF00
03FCFF00
03FCFF00
03F87F00
03F87F00
03F03F00
03F03F00
ENDCHAR
STARTCHAR 0058.uni0058
ENCODING 88
SWIDTH 1218 0
DWIDTH 26 0
BBX 28 46 -2 0
BITMAP
FFC03FF0
FFC03FF0
FFC03FF0
FFC03FF0
FFC03FF0
3F000FC0
1F801F80
1F801F80
0FC03F00
0FC03F00
07E07E00
07E07E00
03F0FC00
03F0FC00
01F0F800
01FFF800
00FFF000
00FFF000
007FE000
007FE000
003FC000
003FC000
003FC000
003FC000
007FE000
007FE000
00FFF000
00FFF000
01FFF800
01FFF800
03FFFC00
03FFFC00
07F0FE00
07F0FE00
0FE07F00
0FE07F00
1FC03F80
1FC03F80
3F801FC0
3F801FC0
7F000FE0
FFC03FF0
FFC03FF0
FFC03FF0
FFC03FF0
FFC03FF0
ENDCHAR
STARTCHAR 0059.uni0059
ENCODING 89
SWIDTH 1218 0
DWIDTH 26 0
BBX 30 46 -2 0
BITMAP
FFC00FFC
FFC00FFC
FFC00FFC
FFC00FFC
FFC00FFC
3F0003F0
1F8007E0
1F8007E0
0FC00FC0
0FC00FC0
07E01F80
07E01F80
03F03F00
03F03F00
01F87E00
01F87E00
00FCFC00
00FCFC00
007FF800
007FF800
003FF000
003FF000
001FE000
001FE000
000FC000
000FC000
000FC000
000FC000
000FC000
000FC000
000FC000
000FC000
000FC000
000FC000
000FC000
000FC000
000FC000
000FC000
000FC000
000FC000
00FFFC00
00FFFC00
00FFFC00
00FFFC00
00FFFC00
00FFFC00
ENDCHAR
STARTCHAR 005A.uni005A
ENCODING 90
SWIDTH 1218 0
DWIDTH 26 0
BBX 26 46 0 0
BITMAP
FFFFFFC0
FFFFFFC0
FFFFFFC0
FFFFFFC0
FFFFFFC0
FFFFFFC0
F0003F80
F0003F80
00007F00
00007F00
0000FE00
0000FE00
0001FC00
0001FC00
0003F800
0003F800
0007F000
0007F000
000FE000
000FE000
001FC000
001FC000
003F8000
003F8000
007F0000
007F0000
00FE0000
00FE0000
01FC0000
01FC0000
03F80000
03F80000
07F00000
07F00000
0FE00000
0FE00000
1FC00000
1FC00000
3F8003C0
3F8003C0
FFFFFFC0
FFFFFFC0
FFFFFFC0
FFFFFFC0
FFFFFFC0
FFFFFFC0
ENDCHAR
STARTCHAR 005B.uni005B
ENCODING 91
SWIDTH 1218 0
DWIDTH 26 0
BBX 16 52 8 -6
BITMAP
FFFF
FFFF
FFFF
FFFF
FFFF
FFFF
FC00
FC00
FC00
FC00
FC00
FC00
FC00
FC00
FC00
FC00
FC00
FC00
FC00
FC00
FC00
FC00
FC00
FC00
FC00
FC00
FC00
FC00
FC00
FC00
FC00
FC00
FC00
FC00
FC00
FC00
FC00
FC00
FC00
FC00
FC00
FC00
FC00
FC00
FC00
FC00
FFFF
FFFF
FFFF
FFFF
FFFF
FFFF
ENDCHAR
STARTCHAR 005C.uni005C
ENCODING 92
SWIDTH 1218 0
DWIDTH 26 0
BBX 26 46 0 0
BITMAP
FC000000
FC000000
FE000000
FE000000
FF000000
FF000000
7F800000
7F800000
3FC00000
3FC00000
1FE00000
1FE00000
0FF00000
0FF00000
07F80000
07F80000
03FC0000
03FC0000
01FE0000
01FE0000
00FF0000
00FF0000
007F8000
007F8000
003FC000
003FC000
001FE000
001FE000
000FF000
000FF000
0007F800
0007F800
0003FC00
0003FC00
0001FE00
0001FE00
0000FF00
0000FF00
00007F80
00007F80
00003FC0
00003FC0
00001FC0
00001FC0
00000FC0
00000FC0
ENDCHAR
STARTCHAR 005D.uni005D
ENCODING 93
SWIDTH 1218 0
DWIDTH 26 0
BBX 16 52 2 -6
BITMAP
FFFF
FFFF
FFFF
FFFF
FFFF
FFFF
003F
003F
003F
003F
003F
003F
003F
003F
003F
003F
003F
003F
003F
003F
003F
003F
003F
003F
003F
003F
003F
003F
003F
003F
003F
003F
003F
003F
003F
003F
003F
003F
003F
003F
003F
003F
003F
003F
003F
003F
FFFF
FFFF
FFFF
FFFF
FFFF
FFFF
ENDCHAR
STARTCHAR 005E.uni005E
ENCODING 94
SWIDTH 1218 0
DWIDTH 26 0
BBX 26 16 0 28
BITMAP
003F0000
007F8000
00FFC000
01FFE000
03FFF000
07FFF800
0FFFFC00
1FFFFE00
3FF3FF00
7FE1FF80
FFC0FFC0
FF807FC0
FF003FC0
FE001FC0
FC000FC0
F80007C0
ENDCHAR
STARTCHAR 005F.uni005F
ENCODING 95
SWIDTH 1218 0
DWIDTH 26 0
BBX 26 6 0 -11
BITMAP
FFFFFFC0
FFFFFFC0
FFFFFFC0
FFFFFFC0
FFFFFFC0
FFFFFFC0
ENDCHAR
STARTCHAR 0060.uni0060
ENCODING 96
SWIDTH 1218 0
DWIDTH 26 0
BBX 15 15 6 31
BITMAP
FC00
FE00
FF00
FF80
FFC0
FFE0
7FF0
3FF8
1FFC
0FFE
07FE
03FE
01FE
00FE
007E
ENDCHAR
STARTCHAR 0061.uni0061
ENCODING 97
SWIDTH 1218 0
DWIDTH 26 0
BBX 26 30 0 0
BITMAP
07FFE000
1FFFF800
3FFFFC00
7FFFFE00
7FFFFE00
FFFFFF00
FE007F00
FC003F00
00003F00
00003F00
07FFBF00
1FFFFF00
3FFFFF00
7FFFFF00
7FFFFF00
FFFFFF00
FE007F00
FC003F00
FC003F00
FC003F00
FC003F00
FC003F00
FC003F00
FE007F00
FFFFFF00
7FFFFF80
7FFFFFC0
3FFFFFC0
1FFFEFC0
07FF8FC0
ENDCHAR
STARTCHAR 0062.uni0062
ENCODING 98
SWIDTH 1218 0
DWIDTH 26 0
BBX 26 46 0 0
BITMAP
FFF00000
FFF00000
FFF00000
FFF00000
3F000000
3F000000
3F000000
3F000000
3F000000
3F000000
3F000000
3F000000
3F000000
3F000000
3F000000
3F000000
3F3FE000
3F7FF800
3FFFFC00
3FFFFE00
3FFFFF00
3FFFFF80
3FC03F80
3FC01F80
3F801FC0
3F800FC0
3F000FC0
3F000FC0
3F000FC0
3F000FC0
3F000FC0
3F000FC0
3F000FC0
3F000FC0
3F000FC0
3F000FC0
3F800FC0
3F800FC0
3F801F80
3FC03F80
3FFFFF80
3FFFFF00
FFFFFE00
FFFFFC00
FFFFF800
FFFFC000
ENDCHAR
STARTCHAR 0063.uni0063
ENCODING 99
SWIDTH 1218 0
DWIDTH 26 0
BBX 26 30 0 0
BITMAP
00FFC000
03FFF000
0FFFFC00
1FFFFE00
3FFFFF00
7FFFFF80
7F807F80
FE001FC0
FE001FC0
FC000FC0
FC000FC0
FC000000
FC000000
FC000000
FC000000
FC000000
FC000000
FC000000
FC000000
FC000FC0
FC000FC0
FE001FC0
FE001FC0
7F807F80
7FFFFF80
3FFFFF00
1FFFFE00
0FFFFC00
03FFF000
00FFC000
ENDCHAR
STARTCHAR 0064.uni0064
ENCODING 100
SWIDTH 1218 0
DWIDTH 26 0
BBX 26 46 0 0
BITMAP
0003FFC0
0003FFC0
0003FFC0
0003FFC0
00003F00
00003F00
00003F00
00003F00
00003F00
00003F00
00003F00
00003F00
00003F00
00003F00
00003F00
00003F00
01FF3F00
07FFBF00
0FFFFF00
1FFFFF00
3FFFFF00
7FFFFF00
7F00FF00
7E00FF00
FE007F00
FC007F00
FC003F00
FC003F00
FC003F00
FC003F00
FC003F00
FC003F00
FC003F00
FC003F00
FC003F00
FC003F00
FC007F00
FC007F00
7E007F00
7F00FF00
7FFFFF00
3FFFFF00
1FFFFFC0
0FFFFFC0
07FFFFC0
00FFFFC0
ENDCHAR
STARTCHAR 0065.uni0065
ENCODING 101
SWIDTH 1218 0
DWIDTH 26 0
BBX 26 30 0 0
BITMAP
00FFC000
03FFF000
0FFFFC00
1FFFFE00
3FFFFF00
7FFFFF80
7F807F80
FE001FC0
FE001FC0
FC000FC0
FC000FC0
FFFFFFC0
FFFFFFC0
FFFFFFC0
FFFFFFC0
FFFFFFC0
FC000000
FC000000
FC000000
FC000FC0
FC000FC0
FE001FC0
FE001FC0
7F807F80
7FFFFF80
3FFFFF00
1FFFFE00
0FFFFC00
03FFF000
00FFC000
ENDCHAR
STARTCHAR 0066.uni0066
ENCODING 102
SWIDTH 1218 0
DWIDTH 26 0
BBX 18 46 4 0
BITMAP
00FFC000
01FFC000
03FFC000
07FFC000
0FFFC000
0FFFC000
0FF00000
0FE00000
0FC00000
0FC00000
0FC00000
0FC00000
0FC00000
0FC00000
0FC00000
0FC00000
FFFFC000
FFFFC000
FFFFC000
FFFFC000
FFFFC000
FFFFC000
0FC00000
0FC00000
0FC00000
0FC00000
0FC00000
0FC00000
0FC00000
0FC00000
0FC00000
0FC00000
0FC00000
0FC00000
0FC00000
0FC00000
0FC00000
0FC00000
0FC00000
0FC00000
FFFFC000
FFFFC000
FFFFC000
FFFFC000
FFFFC000
FFFFC000
ENDCHAR
STARTCHAR 0067.uni0067
ENCODING 103
SWIDTH 1218 0
DWIDTH 26 0
BBX 26 42 0 -12
BITMAP
00FFCFC0
03FFFFC0
0FFFFFC0
1FFFFFC0
3FFFFFC0
7FFFFFC0
7F807FC0
FE001FC0
FE001FC0
FC000FC0
FC000FC0
FC000FC0
FC000FC0
FC000FC0
FC000FC0
FC000FC0
FC000FC0
FC000FC0
FC000FC0
FC000FC0
FC000FC0
FE001FC0
FE001FC0
7F807FC0
7FFFFFC0
3FFFFFC0
1FFFFFC0
0FFFFFC0
03FFFFC0
00FFCFC0
00000FC0
00000FC0
00001FC0
F0001FC0
F8003FC0
FE00FFC0
FFFFFF80
FFFFFF80
FFFFFF00
7FFFFE00
3FFFFC00
0FFFF000
ENDCHAR
STARTCHAR 0068.uni0068
ENCODING 104
SWIDTH 1218 0
DWIDTH 26 0
BBX 30 46 -2 0
BITMAP
FFC00000
FFC00000
FFC00000
FFC00000
FFC00000
FFC00000
3F000000
3F000000
3F000000
3F000000
3F000000
3F000000
3F000000
3F000000
3F000000
3F000000
3F3FF000
3F7FFC00
3FFFFF00
3FFFFF80
3FFFFFC0
3FFFFFC0
3FF03FE0
3FC00FE0
3F800FF0
3F8007F0
3F0003F0
3F0003F0
3F0003F0
3F0003F0
3F0003F0
3F0003F0
3F0003F0
3F0003F0
3F0003F0
3F0003F0
3F0003F0
3F0003F0
3F0003F0
3F0003F0
FFC00FFC
FFC00FFC
FFC00FFC
FFC00FFC
FFC00FFC
FFC00FFC
ENDCHAR
STARTCHAR 0069.uni0069
ENCODING 105
SWIDTH 1218 0
DWIDTH 26 0
BBX 24 40 1 0
BITMAP
003C0000
007E0000
007E0000
007E0000
007E0000
003C0000
00000000
00000000
00000000
00000000
1FFE0000
1FFE0000
FFFE0000
FFFE0000
FFFE0000
FFFE0000
F87E0000
F87E0000
007E0000
007E0000
007E0000
007E0000
007E0000
007E0000
007E0000
007E0000
007E0000
007E0000
007E0000
007E0000
007E0000
007E0000
007E0000
007E0000
FFFFFF00
FFFFFF00
FFFFFF00
FFFFFF00
FFFFFF00
FFFFFF00
ENDCHAR
STARTCHAR 006A.uni006A
ENCODING 106
SWIDTH 1218 0
DWIDTH 26 0
BBX 23 50 2 -12
BITMAP
00007800
0000FC00
0000FC00
0000FC00
0000FC00
00007800
00000000
00000000
FFFFFE00
FFFFFE00
FFFFFE00
FFFFFE00
FFFFFE00
FFFFFE00
FC007E00
FC007E00
FC007E00
00007E00
00007E00
00007E00
00007E00
00007E00
00007E00
00007E00
00007E00
00007E00
00007E00
00007E00
00007E00
00007E00
00007E00
00007E00
00007E00
00007E00
00007E00
00007E00
00007E00
00007E00
00007E00
00007E00
F8007E00
F8007E00
F800FE00
FC01FE00
FFFFFC00
FFFFFC00
7FFFF800
7FFFF000
3FFFE000
0FFF8000
ENDCHAR
STARTCHAR 006B.uni006B
ENCODING 107
SWIDTH 1218 0
DWIDTH 26 0
BBX 28 46 0 0
BITMAP
FFC00000
FFC00000
FFC00000
FFC00000
FFC00000
FFC00000
3F000000
3F000000
3F000000
3F000000
3F000000
3F000000
3F000000
3F000000
3F000000
3F000000
3F03FF00
3F03FF00
3F03FF00
3F03FF00
3F01FC00
3F03F800
3F07F000
3F0FE000
3F1FC000
3F3F8000
3F7F0000
3FFE0000
3FFE0000
3FFF0000
3FFF8000
3FFFC000
3FCFE000
3F87F000
3F03F800
3F01FC00
3F00FE00
3F007F00
3F003F80
3F001FC0
FFC03FF0
FFC03FF0
FFC03FF0
FFC03FF0
FFC03FF0
FFC03FF0
ENDCHAR
STARTCHAR 006C.uni006C
ENCODING 108
SWIDTH 1218 0
DWIDTH 26 0
BBX 24 46 1 0
BITMAP
1FFE0000
1FFE0000
1FFE0000
1FFE0000
1FFE0000
1FFE0000
007E0000
007E0000
007E0000
007E0000
007E0000
007E0000
007E0000
007E0000
007E0000
007E0000
007E0000
007E0000
007E0000
007E0000
007E0000
007E0000
007E0000
007E0000
007E0000
007E0000
007E0000
007E0000
007E0000
007E0000
007E0000
007E0000
007E0000
007E0000
007E0000
007E0000
007E0000
007E0000
007E0000
007E0000
FFFFFF00
FFFFFF00
FFFFFF00
FFFFFF00
FFFFFF00
FFFFFF00
ENDCHAR
STARTCHAR 006D.uni006D
ENCODING 109
SWIDTH 1218 0
DWIDTH 26 0
BBX 28 30 -1 0
BITMAP
F9E07800
FBF0FC00
FFFFFE00
FFFFFF00
FFFFFF80
FFFFFFC0
7FFFFFC0
7FFFFFC0
7F3FCFC0
7E1F87C0
7E1F87E0
7E1F87E0
7E1F87E0
7E1F87E0
7E1F87E0
7E1F87E0
7E1F87E0
7E1F87E0
7E1F87E0
7E1F87E0
7E1F87E0
7E1F87E0
7E1F87E0
7E1F87E0
FF1F8FF0
FF1F8FF0
FF1F8FF0
FF1F8FF0
FF1F8FF0
FF1F8FF0
ENDCHAR
STARTCHAR 006E.uni006E
ENCODING 110
SWIDTH 1218 0
DWIDTH 26 0
BBX 28 30 -1 0
BITMAP
FE7FF000
FEFFFC00
FFFFFF00
FFFFFF00
FFFFFF80
FFFFFF80
7FC03FC0
7F801FC0
7F801FC0
7F000FC0
7E0007E0
7E0007E0
7E0007E0
7E0007E0
7E0007E0
7E0007E0
7E0007E0
7E0007E0
7E0007E0
7E0007E0
7E0007E0
7E0007E0
7E0007E0
7E0007E0
FF000FF0
FF000FF0
FF000FF0
FF000FF0
FF000FF0
FF000FF0
ENDCHAR
STARTCHAR 006F.uni006F
ENCODING 111
SWIDTH 1218 0
DWIDTH 26 0
BBX 26 30 0 0
BITMAP
00FFC000
03FFF000
0FFFFC00
1FFFFE00
3FFFFF00
7FFFFF80
7F807F80
FE001FC0
FE001FC0
FC000FC0
FC000FC0
FC000FC0
FC000FC0
FC000FC0
FC000FC0
FC000FC0
FC000FC0
FC000FC0
FC000FC0
FC000FC0
FC000FC0
FE001FC0
FE001FC0
7F807F80
7FFFFF80
3FFFFF00
1FFFFE00
0FFFFC00
03FFF000
00FFC000
ENDCHAR
STARTCHAR 0070.uni0070
ENCODING 112
SWIDTH 1218 0
DWIDTH 26 0
BBX 28 42 -2 -12
BITMAP
FF3FF000
FFFFFC00
FFFFFF00
FFFFFF80
FFFFFFC0
FFFFFFE0
3FE01FE0
3F8007F0
3F8007F0
3F0003F0
3F0003F0
3F0003F0
3F0003F0
3F0003F0
3F0003F0
3F0003F0
3F0003F0
3F0003F0
3F0003F0
3F0003F0
3F0003F0
3F8007F0
3F8007F0
3FE01FE0
3FFFFFE0
3FFFFFC0
3FFFFF80
3FFFFF00
3FFFFC00
3F3FF000
3F000000
3F000000
3F000000
3F000000
3F000000
3F000000
FFC00000
FFC00000
FFC00000
FFC00000
FFC00000
FFC00000
ENDCHAR
STARTCHAR 0071.uni0071
ENCODING 113
SWIDTH 1218 0
DWIDTH 26 0
BBX 28 42 -2 -12
BITMAP
00FFCFF0
03FFFFF0
0FFFFFF0
1FFFFFF0
3FFFFFF0
7FFFFFF0
7F807FC0
FE001FC0
FE001FC0
FC000FC0
FC000FC0
FC000FC0
FC000FC0
FC000FC0
FC000FC0
FC000FC0
FC000FC0
FC000FC0
FC000FC0
FC000FC0
FC000FC0
FE001FC0
FE001FC0
7F807FC0
7FFFFFC0
3FFFFFC0
1FFFFFC0
0FFFFFC0
03FFFFC0
00FFCFC0
00000FC0
00000FC0
00000FC0
00000FC0
00000FC0
00000FC0
00003FF0
00003FF0
00003FF0
00003FF0
00003FF0
00003FF0
ENDCHAR
STARTCHAR 0072.uni0072
ENCODING 114
SWIDTH 1218 0
DWIDTH 26 0
BBX 27 30 -1 0
BITMAP
FE7FF000
FEFFFC00
FFFFFF00
FFFFFF00
FFFFFF80
FFFFFF80
FFC03FC0
7F801FC0
7F801FE0
7F000FE0
7E0007E0
7E000000
7E000000
7E000000
7E000000
7E000000
7E000000
7E000000
7E000000
7E000000
7E000000
7E000000
7E000000
7E000000
FF000000
FF000000
FF000000
FF000000
FF000000
FF000000
ENDCHAR
STARTCHAR 0073.uni0073
ENCODING 115
SWIDTH 1218 0
DWIDTH 26 0
BBX 26 30 0 0
BITMAP
03FFF000
0FFFFF00
3FFFFFC0
7FFFFFC0
7FFFFFC0
FFFFFFC0
FF000FC0
FE0007C0
FF000000
FFC00000
7FF00000
3FF80000
0FFF0000
07FFC000
01FFF000
007FFC00
001FFF00
0003FF80
0000FFC0
00003FC0
F8001FC0
FC000FC0
FE001FC0
FF003FC0
7FFFFF80
3FFFFF00
1FFFFE00
0FFFFC00
07FFF000
00FFC000
ENDCHAR
STARTCHAR 0074.uni0074
ENCODING 116
SWIDTH 1218 0
DWIDTH 26 0
BBX 28 46 -2 0
BITMAP
0FC00000
0FC00000
0FC00000
0FC00000
0FC00000
0FC00000
0FC00000
0FC00000
0FC00000
0FC00000
0FC00000
0FC00000
0FC00000
0FC00000
0FC00000
0FC00000
FFFFFF00
FFFFFF00
FFFFFF00
FFFFFF00
FFFFFF00
FFFFFF00
0FC00000
0FC00000
0FC00000
0FC00000
0FC00000
0FC00000
0FC00000
0FC00000
0FC00000
0FC00000
0FC00000
0FC00000
0FC003F0
0FC003F0
0FE007F0
0FE007F0
0FE007E0
0FF00FE0
0FFFFFC0
0FFFFFC0
07FFFF80
03FFFF00
01FFFC00
00FFF000
ENDCHAR
STARTCHAR 0075.uni0075
ENCODING 117
SWIDTH 1218 0
DWIDTH 26 0
BBX 29 30 -2 0
BITMAP
FF000FF0
FF000FF0
FF000FF0
FF000FF0
FF000FF0
FF000FF0
3F0003F0
3F0003F0
3F0003F0
3F0003F0
3F0003F0
3F0003F0
3F0003F0
3F0003F0
3F0003F0
3F0003F0
3F0003F0
3F0003F0
3F0003F0
3F0003F0
1F8007F0
1FC00FF0
1FC00FF0
1FE01FF0
0FFFFFF8
0FFFFFF8
07FFFFF8
07FFFFF8
01FFFBF8
007FF3F8
ENDCHAR
STARTCHAR 0076.uni0076
ENCODING 118
SWIDTH 1218 0
DWIDTH 26 0
BBX 28 30 -1 0
BITMAP
FF801FF0
FF801FF0
FF801FF0
FF801FF0
FF801FF0
FF801FF0
3F000FC0
3F000FC0
3F000FC0
1F801F80
1F801F80
1F801F80
0FC03F00
0FC03F00
0FC03F00
07E07E00
07E07E00
07E07E00
03F0FC00
03F0FC00
03F0FC00
01F9F800
01F9F800
01F9F800
00FFF000
00FFF000
00FFF000
007FE000
007FE000
007FE000
ENDCHAR
STARTCHAR 0077.uni0077
ENCODING 119
SWIDTH 1218 0
DWIDTH 26 0
BBX 30 30 -2 0
BITMAP
FF1FE3FC
FF1FE3FC
FF1FE3FC
FF1FE3FC
FF1FE3FC
FF1FE3FC
7E0FC1F8
7E0FC1F8
7E0FC1F8
3F0FC3F0
3F0FC3F0
3F0FC3F0
3F0FC3F0
3F0FC3F0
1F8FC7E0
1F8FC7E0
1F8FC7E0
1F8FC7E0
1F8FC7E0
0FCFCFC0
0FCFCFC0
0FCFCFC0
0FDFEFC0
0FDFEFC0
07FFFF80
07FFFF80
07FFFF80
07FFFF80
07EFDF80
07EFDF80
ENDCHAR
STARTCHAR 0078.uni0078
ENCODING 120
SWIDTH 1218 0
DWIDTH 26 0
BBX 28 30 -2 0
BITMAP
FFF9FFF0
FFF9FFF0
FFF9FFF0
FFF9FFF0
FFF9FFF0
FFF9FFF0
1FF0FF80
0FF9FF00
07FFFE00
03FFFC00
01FFF800
00FFF000
007FE000
003FC000
003FC000
003FC000
003FC000
007FE000
00FFF000
01FFF800
03F9FC00
07F0FE00
0FE07F00
1FC03F80
FFE07FF0
FFE07FF0
FFE07FF0
FFE07FF0
FFE07FF0
FFE07FF0
ENDCHAR
STARTCHAR 0079.uni0079
ENCODING 121
SWIDTH 1218 0
DWIDTH 26 0
BBX 30 42 -2 -12
BITMAP
FFE01FFC
FFE01FFC
FFE01FFC
FFE01FFC
FFE01FFC
FFE01FFC
1F8007E0
1F8007E0
1F8007E0
0FC00FC0
0FC00FC0
0FC00FC0
07E01F80
07E01F80
07E01F80
03F03F00
03F03F00
03F03F00
01F87E00
01F87E00
01F87E00
00FCFC00
00FCFC00
00FCFC00
007FF800
007FF800
007FF800
003FF000
003FF000
003FF000
001FE000
001FE000
001FE000
000FC000
000FC000
001FC000
03FF8000
03FF8000
03FF8000
03FF0000
03FE0000
03FC0000
ENDCHAR
STARTCHAR 007A.uni007A
ENCODING 122
SWIDTH 1218 0
DWIDTH 26 0
BBX 26 30 0 0
BITMAP
FFFFFFC0
FFFFFFC0
FFFFFFC0
FFFFFFC0
FFFFFFC0
FFFFFFC0
FC00FF80
FC01FF00
FC03FE00
0007FC00
000FF800
001FF000
003FE000
007FC000
00FF8000
01FF0000
03FE0000
07FC0000
0FF80000
1FF00000
3FE00000
7FC00FC0
FF800FC0
FF000FC0
FFFFFFC0
FFFFFFC0
FFFFFFC0
FFFFFFC0
FFFFFFC0
FFFFFFC0
ENDCHAR
STARTCHAR 007B.uni007B
ENCODING 123
SWIDTH 1218 0
DWIDTH 26 0
BBX 21 52 3 -6
BITMAP
007FF800
00FFF800
01FFF800
03FFF800
07FFF800
07FFF800
07F00000
07E00000
07E00000
07E00000
07E00000
07E00000
07E00000
07E00000
07E00000
07E00000
07E00000
07E00000
07E00000
0FE00000
1FE00000
3FE00000
7F800000
7F800000
FF000000
FF000000
7F800000
7F800000
3FE00000
1FE00000
0FE00000
07E00000
07E00000
07E00000
07E00000
07E00000
07E00000
07E00000
07E00000
07E00000
07E00000
07E00000
07E00000
07E00000
07E00000
07F00000
07FFF800
07FFF800
03FFF800
01FFF800
00FFF800
007FF800
ENDCHAR
STARTCHAR 007C.uni007C
ENCODING 124
SWIDTH 1218 0
DWIDTH 26 0
BBX 6 46 10 0
BITMAP
FC00
FC00
FC00
FC00
FC00
FC00
FC00
FC00
FC00
FC00
FC00
FC00
FC00
FC00
FC00
FC00
FC00
FC00
FC00
FC00
FC00
FC00
FC00
FC00
FC00
FC00
FC00
FC00
FC00
FC00
FC00
FC00
FC00
FC00
FC00
FC00
FC00
FC00
FC00
FC00
FC00
FC00
FC00
FC00
FC00
FC00
ENDCHAR
STARTCHAR 007D.uni007D
ENCODING 125
SWIDTH 1218 0
DWIDTH 26 0
BBX 21 52 3 -6
BITMAP
FFF00000
FFF80000
FFFC0000
FFFE0000
FFFF0000
FFFF0000
007F0000
003F0000
003F0000
003F0000
003F0000
003F0000
003F0000
003F0000
003F0000
003F0000
003F0000
003F0000
003F0000
003F8000
003FC000
003FE000
000FF000
000FF000
0007F800
0007F800
000FF000
000FF000
003FE000
003FC000
003F8000
003F0000
003F0000
003F0000
003F0000
003F0000
003F0000
003F0000
003F0000
003F0000
003F0000
003F0000
003F0000
003F0000
003F0000
007F0000
FFFF0000
FFFF0000
FFFE0000
FFFC0000
FFF80000
FFF00000
ENDCHAR
STARTCHAR 007E.uni007E
ENCODING 126
SWIDTH 1218 0
DWIDTH 26 0
BBX 27 16 -1 14
BITMAP
1FF80000
3FFC0000
7FFE0000
FFFF0000
FFFF03E0
FFFF03E0
FE7F03E0
FC3F03E0
F81F87E0
F81FCFE0
F81FFFE0
F81FFFE0
001FFFE0
001FFFC0
000FFF80
0007FF00
ENDCHAR
STARTCHAR 00A0.uni00A0
ENCODING 160
SWIDTH 1124 0
DWIDTH 24 0
BBX 0 0 0 0
BITMAP
ENDCHAR
STARTCHAR 00A1.uni00A1
ENCODING 161
SWIDTH 1218 0
DWIDTH 26 0
BBX 10 46 8 -10
BITMAP
3F00
7F80
FFC0
FFC0
FFC0
FFC0
FFC0
FFC0
7F80
3F00
0000
0000
0000
0000
3F00
3F00
3F00
3F00
3F00
3F00
3F00
3F00
3F00
3F00
3F00
3F00
3F00
3F00
3F00
3F00
3F00
3F00
3F00
3F00
3F00
3F00
3F00
3F00
3F00
3F00
3F00
3F00
3F00
3F00
3F00
3F00
ENDCHAR
STARTCHAR 00A2.uni00A2
ENCODING 162
SWIDTH 1218 0
DWIDTH 26 0
BBX 26 58 0 -6
BITMAP
003F0000
003F0000
003F0000
003F0000
003F0000
003F0000
003F0000
00FFC000
03FFF000
07FFF800
0FFFFC00
0FFFFC00
1FC0FE00
1F807E00
3F807F00
3F003F00
3F003F00
7F003F80
7E001F80
7E001F80
FC000FC0
FC000FC0
FC000000
FC000000
FC000000
FC000000
FC000000
FC000000
FC000000
FC000000
FC000000
FC000000
FC000000
FC000000
FC000000
FC000000
FC000FC0
FC000FC0
7E001F80
7E001F80
7F003F80
3F003F00
3F003F00
3F807F00
1F807E00
1FC0FE00
0FFFFC00
0FFFFC00
07FFF800
03FFF000
00FFC000
003F0000
003F0000
003F0000
003F0000
003F0000
003F0000
003F0000
ENDCHAR
STARTCHAR 00A3.uni00A3
ENCODING 163
SWIDTH 1218 0
DWIDTH 26 0
BBX 26 46 0 0
BITMAP
00FC0000
03FF0000
0FFFC000
1FFFE000
3FFFF000
3FFFF000
7FCFF000
7F03F000
FE01F000
FE01F000
FC01F000
FC01F000
FC000000
FC000000
FE000000
7F000000
3F800000
1FC00000
0FE00000
0FF00000
FFFFFC00
FFFFFC00
FFFFFC00
FFFFFC00
FFFFFC00
FFFFFC00
03F00000
03F00000
03F00000
03F00000
03F00000
03F00000
03F00000
03F00000
03F00FC0
03F00FC0
03F00FC0
03F00FC0
03F81FC0
03FC3FC0
FFFFFF80
FFFFFF80
FFFFFF00
FFFFFE00
FFFFFC00
FFFFF000
ENDCHAR
STARTCHAR 00A4.uni00A4
ENCODING 164
SWIDTH 1124 0
DWIDTH 24 0
BBX 26 46 -2 0
BITMAP
0003F000
000FFC00
003FFF00
007FFF80
00FFFFC0
00FFFFC0
01FC0FC0
01F803C0
03F801C0
03F000C0
03F00000
07F00000
07E00000
07E00000
0FC00000
0FC00000
0FC00000
FFFFE000
FFFFE000
FFFFE000
FFFFE000
0FC00000
0FC00000
0FC00000
0FC00000
FFFFE000
FFFFE000
FFFFE000
FFFFE000
0FC00000
0FC00000
0FC00000
07E00000
07E00000
07F00000
03F00000
03F000C0
03F801C0
01F803C0
01FC0FC0
00FFFFC0
00FFFFC0
007FFF80
003FFF00
000FFC00
0003F000
ENDCHAR
STARTCHAR 00A5.uni00A5
ENCODING 165
SWIDTH 1218 0
DWIDTH 26 0
BBX 30 46 -2 0
BITMAP
FFE01FFC
FFE01FFC
FFE01FFC
FFE01FFC
FFE01FFC
FFE01FFC
1F8007E0
1F8007E0
0FC00FC0
0FC00FC0
07E01F80
07E01F80
03F03F00
03F03F00
01F87E00
01F87E00
00FCFC00
00FCFC00
007FF800
007FF800
003FF000
003FF000
001FE000
001FE000
0FFFFFC0
0FFFFFC0
0FFFFFC0
0FFFFFC0
000FC000
000FC000
000FC000
000FC000
0FFFFFC0
0FFFFFC0
0FFFFFC0
0FFFFFC0
000FC000
000FC000
000FC000
000FC000
00FFFC00
00FFFC00
00FFFC00
00FFFC00
00FFFC00
00FFFC00
ENDCHAR
STARTCHAR 00A6.uni00A6
ENCODING 166
SWIDTH 1218 0
DWIDTH 26 0
BBX 6 42 10 0
BITMAP
FC00
FC00
FC00
FC00
FC00
FC00
FC00
FC00
FC00
FC00
FC00
FC00
FC00
FC00
FC00
FC00
FC00
FC00
0000
0000
0000
0000
0000
0000
FC00
FC00
FC00
FC00
FC00
FC00
FC00
FC00
FC00
FC00
FC00
FC00
FC00
FC00
FC00
FC00
FC00
FC00
ENDCHAR
STARTCHAR 00A7.uni00A7
ENCODING 167
SWIDTH 1218 0
DWIDTH 26 0
BBX 26 46 0 0
BITMAP
00F00000
03FC0000
0FFF0000
1FFF8000
3FFFC000
3FFFE000
7F0FF000
7E07F000
FC03F000
FC01F000
FC000000
FE000000
FFF80000
FFFC0000
FFFF0000
FFFF8000
FFFFC000
FFFFE000
FF9FF000
FF0FF800
FF07FC00
FF83FE00
7FC1FF00
3FE0FF80
1FF07FC0
0FF83FC0
07FC3FC0
03FE7FC0
01FFFFC0
00FFFFC0
007FFFC0
003FFFC0
001FFFC0
000FFFC0
00001FC0
00000FC0
03E00FC0
03E01FC0
03F03F80
03F87F80
03FFFF00
03FFFF00
01FFFE00
00FFFC00
007FF000
000FC000
ENDCHAR
STARTCHAR 00A8.uni00A8
ENCODING 168
SWIDTH 1218 0
DWIDTH 26 0
BBX 22 8 2 30
BITMAP
3C00F000
7E01F800
FF03FC00
FF03FC00
FF03FC00
FF03FC00
7E01F800
3C00F000
ENDCHAR
STARTCHAR 00A9.uni00A9
ENCODING 169
SWIDTH 1218 0
DWIDTH 26 0
BBX 30 38 -2 -2
BITMAP
003FF000
00FFFC00
03FFFF00
07FFFF80
0FFFFFC0
0FFFFFC0
1FE01FE0
1F8007E0
3F0003F0
3F0003F0
7E0001F8
7E0001F8
FC0FC0FC
FC1FE0FC
FC3FF0FC
FC3FF0FC
FC3CF0FC
FC3CF0FC
FC3C00FC
FC3C00FC
FC3CF0FC
FC3CF0FC
FC3FF0FC
FC3FF0FC
FC1FE0FC
FC0FC0FC
7E0001F8
7E0001F8
3F0003F0
3F0003F0
1F8007E0
1FC00FE0
0FFFFFC0
0FFFFFC0
07FFFF80
03FFFF00
00FFFC00
003FF000
ENDCHAR
STARTCHAR 00AA.uni00AA
ENCODING 170
SWIDTH 1218 0
DWIDTH 26 0
BBX 14 16 6 14
BITMAP
3FC0
7FE0
FFF0
FFF0
80F0
00F0
3FF0
7FF0
FFF0
FFF0
F0F0
F0F8
FFFC
FFFC
7FBC
3F3C
ENDCHAR
STARTCHAR 00AB.uni00AB
ENCODING 171
SWIDTH 1218 0
DWIDTH 26 0
BBX 22 26 0 4
BITMAP
0FC0FC00
0FC0FC00
0FC0FC00
1F81F800
1F81F800
1F81F800
3F03F000
3F03F000
7E07E000
7E07E000
FC0FC000
FC0FC000
FC0FC000
FC0FC000
FC0FC000
FC0FC000
7E07E000
7E07E000
3F03F000
3F03F000
1F81F800
1F81F800
1F81F800
0FC0FC00
0FC0FC00
0FC0FC00
ENDCHAR
STARTCHAR 00AC.uni00AC
ENCODING 172
SWIDTH 1218 0
DWIDTH 26 0
BBX 20 14 2 10
BITMAP
FFFFF000
FFFFF000
FFFFF000
FFFFF000
FFFFF000
FFFFF000
0003F000
0003F000
0003F000
0003F000
0003F000
0003F000
0003F000
0003F000
ENDCHAR
STARTCHAR 00AD.uni00AD
ENCODING 173
SWIDTH 1218 0
DWIDTH 26 0
BBX 18 6 4 14
BITMAP
FFFFC000
FFFFC000
FFFFC000
FFFFC000
FFFFC000
FFFFC000
ENDCHAR
STARTCHAR 00AE.uni00AE
ENCODING 174
SWIDTH 1218 0
DWIDTH 26 0
BBX 30 38 -2 -2
BITMAP
003FF000
00FFFC00
03FFFF00
07FFFF80
0FFFFFC0
0FFFFFC0
1FE01FE0
1F8007E0
3F0003F0
3F0003F0
7E0001F8
7E0001F8
FC3FC0FC
FC3FE0FC
FC3FF0FC
FC3FF0FC
FC3CF0FC
FC3CF0FC
FC3FE0FC
FC3FC0FC
FC3FC0FC
FC3DE0FC
FC3DE0FC
FC3CF0FC
FC3CF8FC
FC3C78FC
7E0001F8
7E0001F8
3F0003F0
3F0003F0
1F8007E0
1FC00FE0
0FFFFFC0
0FFFFFC0
07FFFF80
03FFFF00
00FFFC00
003FF000
ENDCHAR
STARTCHAR 00AF.uni00AF
ENCODING 175
SWIDTH 1218 0
DWIDTH 26 0
BBX 26 6 0 40
BITMAP
FFFFFFC0
FFFFFFC0
FFFFFFC0
FFFFFFC0
FFFFFFC0
FFFFFFC0
ENDCHAR
STARTCHAR 00B0.uni00B0
ENCODING 176
SWIDTH 1218 0
DWIDTH 26 0
BBX 14 14 6 32
BITMAP
0FC0
3FF0
7FF8
7FF8
FCFC
F87C
F03C
F03C
F87C
FCFC
7FF8
7FF8
3FF0
0FC0
ENDCHAR
STARTCHAR 00B1.uni00B1
ENCODING 177
SWIDTH 1218 0
DWIDTH 26 0
BBX 18 28 4 6
BITMAP
03F00000
03F00000
03F00000
03F00000
03F00000
03F00000
FFFFC000
FFFFC000
FFFFC000
FFFFC000
FFFFC000
FFFFC000
03F00000
03F00000
03F00000
03F00000
03F00000
03F00000
00000000
00000000
00000000
00000000
FFFFC000
FFFFC000
FFFFC000
FFFFC000
FFFFC000
FFFFC000
ENDCHAR
STARTCHAR 00B2.uni00B2
ENCODING 178
SWIDTH 1218 0
DWIDTH 26 0
BBX 14 22 8 18
BITMAP
0FC0
3FF0
7FF8
7FF8
FCFC
F87C
F03C
F03C
007C
007C
00FC
01F8
03F0
07E0
0FC0
1F80
3F00
7E00
FFFC
FFFC
FFFC
FFFC
ENDCHAR
STARTCHAR 00B3.uni00B3
ENCODING 179
SWIDTH 1218 0
DWIDTH 26 0
BBX 14 22 8 18
BITMAP
0FC0
3FF0
7FF8
7FF8
FCFC
F87C
F03C
F03C
007C
03FC
03F0
03F0
03FC
007C
F03C
F03C
F87C
FCFC
FFFC
FFFC
7FF8
3FF0
ENDCHAR
STARTCHAR 00B4.uni00B4
ENCODING 180
SWIDTH 1218 0
DWIDTH 26 0
BBX 10 10 8 36
BITMAP
0FC0
1FC0
3FC0
7FC0
FFC0
FFC0
FF80
FF00
FE00
FC00
ENDCHAR
STARTCHAR 00B5.uni00B5
ENCODING 181
SWIDTH 1218 0
DWIDTH 26 0
BBX 29 40 -2 -10
BITMAP
FF000FF0
FF000FF0
FF000FF0
FF000FF0
FF000FF0
FF000FF0
3F0003F0
3F0003F0
3F0003F0
3F0003F0
3F0003F0
3F0003F0
3F0003F0
3F0003F0
3F0003F0
3F0003F0
3F0003F0
3F0003F0
3F0003F0
3F0003F0
3F8007F0
3F8007F0
3FC00FF0
3FF03FF8
3FFFFFF8
3FFFFFF8
3FFFFFF8
3FFFFFF8
3F7FFBF8
3F3FF1F8
3F000000
3F000000
3F000000
3F000000
3F000000
3F000000
3F000000
3F000000
3F000000
3F000000
ENDCHAR
STARTCHAR 00B6.uni00B6
ENCODING 182
SWIDTH 1218 0
DWIDTH 26 0
BBX 30 46 -2 0
BITMAP
03FFFFFC
1FFFFFFC
3FFFFFFC
3FFFFFFC
7FFFFFFC
7FFFFFFC
FE3F03F0
FC3F03F0
FC3F03F0
FC3F03F0
FC3F03F0
FC3F03F0
FC3F03F0
FC3F03F0
FC3F03F0
FC3F03F0
FC3F03F0
FC3F03F0
7E3F03F0
7E3F03F0
7FFF03F0
3FFF03F0
3FFF03F0
3FFF03F0
0FFF03F0
00FF03F0
003F03F0
003F03F0
003F03F0
003F03F0
003F03F0
003F03F0
003F03F0
003F03F0
003F03F0
003F03F0
003F03F0
003F03F0
003F03F0
003F03F0
03FF03FC
03FF03FC
03FF03FC
03FF03FC
03FF03FC
03FF03FC
ENDCHAR
STARTCHAR 00B7.uni00B7
ENCODING 183
SWIDTH 1218 0
DWIDTH 26 0
BBX 10 10 8 12
BITMAP
3F00
7F80
FFC0
FFC0
FFC0
FFC0
FFC0
FFC0
7F80
3F00
ENDCHAR
STARTCHAR 00B8.uni00B8
ENCODING 184
SWIDTH 1218 0
DWIDTH 26 0
BBX 12 14 6 -10
BITMAP
0F00
0F80
0F80
0FC0
0FE0
07F0
01F0
00F0
F0F0
FFF0
FFF0
FFF0
FFE0
FFC0
ENDCHAR
STARTCHAR 00B9.uni00B9
ENCODING 185
SWIDTH 1218 0
DWIDTH 26 0
BBX 14 22 8 18
BITMAP
0FC0
1FC0
3FC0
7FC0
FFC0
FFC0
FBC0
F3C0
03C0
03C0
03C0
03C0
03C0
03C0
03C0
03C0
03C0
03C0
3FFC
3FFC
3FFC
3FFC
ENDCHAR
STARTCHAR 00BA.uni00BA
ENCODING 186
SWIDTH 1218 0
DWIDTH 26 0
BBX 16 16 4 28
BITMAP
0FF0
3FFC
7FFE
7FFE
FC3F
F81F
F00F
F00F
F00F
F00F
F81F
FC3F
7FFE
7FFE
3FFC
0FF0
ENDCHAR
STARTCHAR 00BB.uni00BB
ENCODING 187
SWIDTH 1218 0
DWIDTH 26 0
BBX 22 26 0 4
BITMAP
FC0FC000
FC0FC000
FC0FC000
7E07E000
7E07E000
7E07E000
3F03F000
3F03F000
1F81F800
1F81F800
0FC0FC00
0FC0FC00
0FC0FC00
0FC0FC00
0FC0FC00
0FC0FC00
1F81F800
1F81F800
3F03F000
3F03F000
7E07E000
7E07E000
7E07E000
FC0FC000
FC0FC000
FC0FC000
ENDCHAR
STARTCHAR 00BC.uni00BC
ENCODING 188
SWIDTH 1218 0
DWIDTH 26 0
BBX 26 46 0 0
BITMAP
0FC00000
1FC00000
3FC00000
7FC00000
FFC00000
FFC00000
FBC00000
F3C00000
03C00000
03C00000
03C00000
03C00000
03C00000
03C00000
03C00F00
03C01F00
03C03E00
03C07C00
3FFCF800
3FFDF000
3FFFE000
3FFFC000
000F8000
001F0000
003E3C00
007C7C00
00F8FC00
01F1FC00
03E3FC00
07C7FC00
0F8FFC00
1F1FBC00
3E3F3C00
7C7E3C00
F8FC3C00
F0F83C00
00FFFFC0
00FFFFC0
00FFFFC0
00FFFFC0
00003C00
00003C00
00003C00
00003C00
00003C00
00003C00
ENDCHAR
STARTCHAR 00BD.uni00BD
ENCODING 189
SWIDTH 1218 0
DWIDTH 26 0
BBX 26 46 0 0
BITMAP
0FC00000
1FC00000
3FC00000
7FC00000
FFC00000
FFC00000
FBC00000
F3C00000
03C00000
03C00000
03C00000
03C00000
03C00000
03C00000
03C00F00
03C01F00
03C03E00
03C07C00
3FFCF800
3FFDF000
3FFFE000
3FFFC000
000F8000
001F0000
003EFC00
007FFF00
00FFFF80
01F7FF80
03EFCFC0
07CF87C0
0F8F03C0
1F0F03C0
3E0007C0
7C0007C0
F8000FC0
F0001F80
00003F00
00007E00
0000FC00
0001F800
0003F000
0007E000
000FFFC0
000FFFC0
000FFFC0
000FFFC0
ENDCHAR
STARTCHAR 00BE.uni00BE
ENCODING 190
SWIDTH 1218 0
DWIDTH 26 0
BBX 26 46 0 0
BITMAP
0FC00000
3FF00000
7FF80000
7FF80000
FCFC0000
F87C0000
F03C0000
F03C0000
007C0000
03FC0000
03F00000
03F00000
03FC0000
007C0000
F03C0F00
F03C1F00
F87C3E00
FCFC7C00
FFFCF800
FFFDF000
7FFBE000
3FF7C000
000F8000
001F0000
003E3C00
007C7C00
00F8FC00
01F1FC00
03E3FC00
07C7FC00
0F8FFC00
1F1FBC00
3E3F3C00
7C7E3C00
F8FC3C00
F0F83C00
00FFFFC0
00FFFFC0
00FFFFC0
00FFFFC0
00003C00
00003C00
00003C00
00003C00
00003C00
00003C00
ENDCHAR
STARTCHAR 00BF.uni00BF
ENCODING 191
SWIDTH 1218 0
DWIDTH 26 0
BBX 26 46 0 -10
BITMAP
003F0000
007F8000
00FFC000
00FFC000
00FFC000
00FFC000
00FFC000
00FFC000
007F8000
003F0000
00000000
00000000
00000000
00000000
003F0000
003F0000
003F0000
003F0000
003F0000
003F0000
003F8000
003FC000
001FE000
000FF000
0007F800
0003FC00
0001FE00
0000FF00
00007F80
00003FC0
00001FC0
00000FC0
00000FC0
00000FC0
FC000FC0
FC000FC0
FC000FC0
FE001FC0
7E003F80
7F007F80
3FFFFF00
3FFFFF00
1FFFFE00
0FFFFC00
03FFF000
00FFC000
ENDCHAR
STARTCHAR 00C0.uni00C0
ENCODING 192
SWIDTH 1218 0
DWIDTH 26 0
BBX 30 56 -2 0
BITMAP
00FC0000
00FE0000
007F0000
003F8000
001FC000
000FC000
00000000
00000000
00000000
00000000
000FC000
000FC000
000FC000
001FE000
001FE000
001FE000
003FF000
003FF000
003FF000
003FF000
007FF800
007FF800
007FF800
007FF800
00FCFC00
00FCFC00
00FCFC00
00FCFC00
01F87E00
01F87E00
01F87E00
01F87E00
03F03F00
03F03F00
03F03F00
03F03F00
07E01F80
07E01F80
07E01F80
07E01F80
0FFFFFC0
0FFFFFC0
0FFFFFC0
1FFFFFE0
1FFFFFE0
1FFFFFE0
3F8007F0
3F8007F0
3F8007F0
7F0003F8
FFC00FFC
FFC00FFC
FFC00FFC
FFC00FFC
FFC00FFC
FFC00FFC
ENDCHAR
STARTCHAR 00C1.uni00C1
ENCODING 193
SWIDTH 1218 0
DWIDTH 26 0
BBX 30 56 -2 0
BITMAP
0000FC00
0001FC00
0003F800
0007F000
000FE000
000FC000
00000000
00000000
00000000
00000000
000FC000
000FC000
000FC000
001FE000
001FE000
001FE000
003FF000
003FF000
003FF000
003FF000
007FF800
007FF800
007FF800
007FF800
00FCFC00
00FCFC00
00FCFC00
00FCFC00
01F87E00
01F87E00
01F87E00
01F87E00
03F03F00
03F03F00
03F03F00
03F03F00
07E01F80
07E01F80
07E01F80
07E01F80
0FFFFFC0
0FFFFFC0
0FFFFFC0
1FFFFFE0
1FFFFFE0
1FFFFFE0
3F8007F0
3F8007F0
3F8007F0
7F0003F8
FFC00FFC
FFC00FFC
FFC00FFC
FFC00FFC
FFC00FFC
FFC00FFC
ENDCHAR
STARTCHAR 00C2.uni00C2
ENCODING 194
SWIDTH 1218 0
DWIDTH 26 0
BBX 30 58 -2 0
BITMAP
00030000
00078000
000FC000
001FE000
003FF000
007FF800
00FFFC00
01FCFE00
03F87F00
03F03F00
03E01F00
03C00F00
000FC000
000FC000
000FC000
001FE000
001FE000
001FE000
003FF000
003FF000
003FF000
003FF000
007FF800
007FF800
007FF800
007FF800
00FCFC00
00FCFC00
00FCFC00
00FCFC00
01F87E00
01F87E00
01F87E00
01F87E00
03F03F00
03F03F00
03F03F00
03F03F00
07E01F80
07E01F80
07E01F80
07E01F80
0FFFFFC0
0FFFFFC0
0FFFFFC0
1FFFFFE0
1FFFFFE0
1FFFFFE0
3F8007F0
3F8007F0
3F8007F0
7F0003F8
FFC00FFC
FFC00FFC
FFC00FFC
FFC00FFC
FFC00FFC
FFC00FFC
ENDCHAR
STARTCHAR 00C3.uni00C3
ENCODING 195
SWIDTH 1218 0
DWIDTH 26 0
BBX 30 58 -2 0
BITMAP
00FC0F00
01FE0F00
03FF0F00
03FF8F00
03EF8F00
03C7DF00
03C7FF00
03C3FF00
03C1FE00
03C0FC00
00000000
00000000
000FC000
000FC000
000FC000
001FE000
001FE000
001FE000
003FF000
003FF000
003FF000
003FF000
007FF800
007FF800
007FF800
007FF800
00FCFC00
00FCFC00
00FCFC00
00FCFC00
01F87E00
01F87E00
01F87E00
01F87E00
03F03F00
03F03F00
03F03F00
03F03F00
07E01F80
07E01F80
07E01F80
07E01F80
0FFFFFC0
0FFFFFC0
0FFFFFC0
1FFFFFE0
1FFFFFE0
1FFFFFE0
3F8007F0
3F8007F0
3F8007F0
7F0003F8
FFC00FFC
FFC00FFC
FFC00FFC
FFC00FFC
FFC00FFC
FFC00FFC
ENDCHAR
STARTCHAR 00C4.uni00C4
ENCODING 196
SWIDTH 1218 0
DWIDTH 26 0
BBX 30 54 -2 0
BITMAP
01E01E00
03F03F00
03F03F00
03F03F00
03F03F00
01E01E00
00000000
00000000
000FC000
000FC000
000FC000
001FE000
001FE000
001FE000
003FF000
003FF000
003FF000
003FF000
007FF800
007FF800
007FF800
007FF800
00FCFC00
00FCFC00
00FCFC00
00FCFC00
01F87E00
01F87E00
01F87E00
01F87E00
03F03F00
03F03F00
03F03F00
03F03F00
07E01F80
07E01F80
07E01F80
07E01F80
0FFFFFC0
0FFFFFC0
0FFFFFC0
1FFFFFE0
1FFFFFE0
1FFFFFE0
3F8007F0
3F8007F0
3F8007F0
7F0003F8
FFC00FFC
FFC00FFC
FFC00FFC
FFC00FFC
FFC00FFC
FFC00FFC
ENDCHAR
STARTCHAR 00C5.uni00C5
ENCODING 197
SWIDTH 1218 0
DWIDTH 26 0
BBX 30 58 -2 0
BITMAP
000FC000
001FE000
003FF000
003CF000
00387000
00387000
003CF000
003FF000
001FE000
000FC000
00000000
00000000
000FC000
000FC000
000FC000
001FE000
001FE000
001FE000
003FF000
003FF000
003FF000
003FF000
007FF800
007FF800
007FF800
007FF800
00FCFC00
00FCFC00
00FCFC00
00FCFC00
01F87E00
01F87E00
01F87E00
01F87E00
03F03F00
03F03F00
03F03F00
03F03F00
07E01F80
07E01F80
07E01F80
07E01F80
0FFFFFC0
0FFFFFC0
0FFFFFC0
1FFFFFE0
1FFFFFE0
1FFFFFE0
3F8007F0
3F8007F0
3F8007F0
7F0003F8
FFC00FFC
FFC00FFC
FFC00FFC
FFC00FFC
FFC00FFC
FFC00FFC
ENDCHAR
STARTCHAR 00C6.uni00C6
ENCODING 198
SWIDTH 1218 0
DWIDTH 26 0
BBX 28 46 -2 0
BITMAP
000FFFF0
001FFFF0
003FFFF0
003FFFF0
003FF0F0
003FF0F0
007FF0F0
007FF0F0
007FF000
007FF000
00FFF000
00FFF000
00FFF000
00FFF000
01FFF000
01FFF000
01FFF000
01FFF000
03F3FFC0
03F3FFC0
03F3FFC0
03F3FFC0
03F3FFC0
07E3FFC0
07E3FFC0
07E3FFC0
07E3F000
07E3F000
0FC3F000
0FC3F000
0FC3F000
0FC3F000
1FFFF000
1FFFF000
1FFFF000
1FFFF000
3FFFF0F0
3FFFF0F0
3F03F0F0
7F03F0F0
7E03FFF0
7E03FFF0
FC0FFFF0
FC0FFFF0
FC0FFFF0
FC0FFFF0
ENDCHAR
STARTCHAR 00C7.uni00C7
ENCODING 199
SWIDTH 1218 0
DWIDTH 26 0
BBX 26 58 0 -12
BITMAP
003F0000
00FFC000
03FFF000
07FFF800
0FFFFC00
0FFFFC00
1FC0FE00
1F807E00
3F807F00
3F003F00
3F003F00
7F003F80
7E001F80
7E001F80
FC000FC0
FC000FC0
FC000000
FC000000
FC000000
FC000000
FC000000
FC000000
FC000000
FC000000
FC000000
FC000000
FC000000
FC000000
FC000000
FC000000
FC000FC0
FC000FC0
7E001F80
7E001F80
7F003F80
3F003F00
3F003F00
3F807F00
1F807E00
1FC0FE00
0FFFFC00
0FFFFC00
07FFF800
03FFF000
00FFC000
003F0000
000F0000
000F0000
000F0000
000F8000
0007C000
0003E000
03C1F000
03C0F000
01E1F000
00F3F000
007FE000
003FC000
ENDCHAR
STARTCHAR 00C8.uni00C8
ENCODING 200
SWIDTH 1218 0
DWIDTH 26 0
BBX 26 54 0 0
BITMAP
00FC0000
00FE0000
007F0000
003F8000
001FC000
000FC000
00000000
00000000
FFFFFFC0
FFFFFFC0
FFFFFFC0
FFFFFFC0
FFFFFFC0
FFFFFFC0
3F0003C0
3F0003C0
3F000000
3F000000
3F000000
3F000000
3F000000
3F000000
3F000000
3F000000
3F003C00
3F003C00
3FFFFC00
3FFFFC00
3FFFFC00
3FFFFC00
3FFFFC00
3FFFFC00
3F003C00
3F003C00
3F000000
3F000000
3F000000
3F000000
3F000000
3F000000
3F000000
3F000000
3F000000
3F000000
3F0003C0
3F0003C0
3F0003C0
3F0003C0
FFFFFFC0
FFFFFFC0
FFFFFFC0
FFFFFFC0
FFFFFFC0
FFFFFFC0
ENDCHAR
STARTCHAR 00C9.uni00C9
ENCODING 201
SWIDTH 1218 0
DWIDTH 26 0
BBX 26 56 0 0
BITMAP
000FC000
001FC000
003F8000
007F0000
00FE0000
00FC0000
00000000
00000000
00000000
00000000
FFFFFFC0
FFFFFFC0
FFFFFFC0
FFFFFFC0
FFFFFFC0
FFFFFFC0
3F0003C0
3F0003C0
3F000000
3F000000
3F000000
3F000000
3F000000
3F000000
3F000000
3F000000
3F003C00
3F003C00
3FFFFC00
3FFFFC00
3FFFFC00
3FFFFC00
3FFFFC00
3FFFFC00
3F003C00
3F003C00
3F000000
3F000000
3F000000
3F000000
3F000000
3F000000
3F000000
3F000000
3F000000
3F000000
3F0003C0
3F0003C0
3F0003C0
3F0003C0
FFFFFFC0
FFFFFFC0
FFFFFFC0
FFFFFFC0
FFFFFFC0
FFFFFFC0
ENDCHAR
STARTCHAR 00CA.uni00CA
ENCODING 202
SWIDTH 1218 0
DWIDTH 26 0
BBX 26 58 0 0
BITMAP
000C0000
001E0000
003F0000
007F8000
00FFC000
01FFE000
03FFF000
07F3F800
0FE1FC00
0FC0FC00
00000000
00000000
FFFFFFC0
FFFFFFC0
FFFFFFC0
FFFFFFC0
FFFFFFC0
FFFFFFC0
3F0003C0
3F0003C0
3F000000
3F000000
3F000000
3F000000
3F000000
3F000000
3F000000
3F000000
3F003C00
3F003C00
3FFFFC00
3FFFFC00
3FFFFC00
3FFFFC00
3FFFFC00
3FFFFC00
3F003C00
3F003C00
3F000000
3F000000
3F000000
3F000000
3F000000
3F000000
3F000000
3F000000
3F000000
3F000000
3F0003C0
3F0003C0
3F0003C0
3F0003C0
FFFFFFC0
FFFFFFC0
FFFFFFC0
FFFFFFC0
FFFFFFC0
FFFFFFC0
ENDCHAR
STARTCHAR 00CB.uni00CB
ENCODING 203
SWIDTH 1218 0
DWIDTH 26 0
BBX 26 56 0 0
BITMAP
07807800
0FC0FC00
0FC0FC00
0FC0FC00
0FC0FC00
07807800
00000000
00000000
00000000
00000000
FFFFFFC0
FFFFFFC0
FFFFFFC0
FFFFFFC0
FFFFFFC0
FFFFFFC0
3F0003C0
3F0003C0
3F000000
3F000000
3F000000
3F000000
3F000000
3F000000
3F000000
3F000000
3F003C00
3F003C00
3FFFFC00
3FFFFC00
3FFFFC00
3FFFFC00
3FFFFC00
3FFFFC00
3F003C00
3F003C00
3F000000
3F000000
3F000000
3F000000
3F000000
3F000000
3F000000
3F000000
3F000000
3F000000
3F0003C0
3F0003C0
3F0003C0
3F0003C0
FFFFFFC0
FFFFFFC0
FFFFFFC0
FFFFFFC0
FFFFFFC0
FFFFFFC0
ENDCHAR
STARTCHAR 00CC.uni00CC
ENCODING 204
SWIDTH 1218 0
DWIDTH 26 0
BBX 26 54 0 0
BITMAP
03F00000
03F80000
01FC0000
00FE0000
007F0000
003F0000
00000000
00000000
FFFFFFC0
FFFFFFC0
FFFFFFC0
FFFFFFC0
FFFFFFC0
FFFFFFC0
003F0000
003F0000
003F0000
003F0000
003F0000
003F0000
003F0000
003F0000
003F0000
003F0000
003F0000
003F0000
003F0000
003F0000
003F0000
003F0000
003F0000
003F0000
003F0000
003F0000
003F0000
003F0000
003F0000
003F0000
003F0000
003F0000
003F0000
003F0000
003F0000
003F0000
003F0000
003F0000
003F0000
003F0000
FFFFFFC0
FFFFFFC0
FFFFFFC0
FFFFFFC0
FFFFFFC0
FFFFFFC0
ENDCHAR
STARTCHAR 00CD.uni00CD
ENCODING 205
SWIDTH 1218 0
DWIDTH 26 0
BBX 26 54 0 0
BITMAP
0003F000
0007F000
000FE000
001FC000
003F8000
003F0000
00000000
00000000
FFFFFFC0
FFFFFFC0
FFFFFFC0
FFFFFFC0
FFFFFFC0
FFFFFFC0
003F0000
003F0000
003F0000
003F0000
003F0000
003F0000
003F0000
003F0000
003F0000
003F0000
003F0000
003F0000
003F0000
003F0000
003F0000
003F0000
003F0000
003F0000
003F0000
003F0000
003F0000
003F0000
003F0000
003F0000
003F0000
003F0000
003F0000
003F0000
003F0000
003F0000
003F0000
003F0000
003F0000
003F0000
FFFFFFC0
FFFFFFC0
FFFFFFC0
FFFFFFC0
FFFFFFC0
FFFFFFC0
ENDCHAR
STARTCHAR 00CE.uni00CE
ENCODING 206
SWIDTH 1218 0
DWIDTH 26 0
BBX 26 58 0 0
BITMAP
000C0000
001E0000
003F0000
007F8000
00FFC000
01FFE000
03FFF000
07F3F800
0FE1FC00
0FC0FC00
00000000
00000000
FFFFFFC0
FFFFFFC0
FFFFFFC0
FFFFFFC0
FFFFFFC0
FFFFFFC0
003F0000
003F0000
003F0000
003F0000
003F0000
003F0000
003F0000
003F0000
003F0000
003F0000
003F0000
003F0000
003F0000
003F0000
003F0000
003F0000
003F0000
003F0000
003F0000
003F0000
003F0000
003F0000
003F0000
003F0000
003F0000
003F0000
003F0000
003F0000
003F0000
003F0000
003F0000
003F0000
003F0000
003F0000
FFFFFFC0
FFFFFFC0
FFFFFFC0
FFFFFFC0
FFFFFFC0
FFFFFFC0
ENDCHAR
STARTCHAR 00CF.uni00CF
ENCODING 207
SWIDTH 1218 0
DWIDTH 26 0
BBX 26 53 0 0
BITMAP
00E1C000
01F3E000
01F3E000
01F3E000
00E1C000
00000000
00000000
FFFFFFC0
FFFFFFC0
FFFFFFC0
FFFFFFC0
FFFFFFC0
FFFFFFC0
003F0000
003F0000
003F0000
003F0000
003F0000
003F0000
003F0000
003F0000
003F0000
003F0000
003F0000
003F0000
003F0000
003F0000
003F0000
003F0000
003F0000
003F0000
003F0000
003F0000
003F0000
003F0000
003F0000
003F0000
003F0000
003F0000
003F0000
003F0000
003F0000
003F0000
003F0000
003F0000
003F0000
003F0000
FFFFFFC0
FFFFFFC0
FFFFFFC0
FFFFFFC0
FFFFFFC0
FFFFFFC0
ENDCHAR
STARTCHAR 00D0.uni00D0
ENCODING 208
SWIDTH 1218 0
DWIDTH 26 0
BBX 26 46 0 0
BITMAP
FFFF0000
FFFFC000
FFFFF000
FFFFF800
FFFFFC00
FFFFFC00
3F00FE00
3F007E00
3F007F00
3F003F00
3F003F00
3F003F80
3F001F80
3F001F80
3F000FC0
3F000FC0
3F000FC0
3F000FC0
3F000FC0
FFE00FC0
FFE00FC0
FFE00FC0
FFE00FC0
FFE00FC0
FFE00FC0
3F000FC0
3F000FC0
3F000FC0
3F000FC0
3F000FC0
3F000FC0
3F000FC0
3F001F80
3F001F80
3F003F80
3F003F00
3F003F00
3F007F00
3F007E00
3F00FE00
FFFFFC00
FFFFFC00
FFFFF800
FFFFF000
FFFFC000
FFFF0000
ENDCHAR
STARTCHAR 00D1.uni00D1
ENCODING 209
SWIDTH 1218 0
DWIDTH 26 0
BBX 26 58 0 0
BITMAP
03F03C00
07F83C00
0FFC3C00
0FFE3C00
0FBF7C00
0FBF7C00
0F1FFC00
0F0FFC00
0F07F800
0F03F000
00000000
00000000
FFC0FFC0
FFC0FFC0
FFC0FFC0
FFC0FFC0
FFC0FFC0
FFC0FFC0
3F803F00
3F803F00
3FC03F00
3FC03F00
3FE03F00
3FE03F00
3FF03F00
3FF03F00
3FF83F00
3FF83F00
3FFC3F00
3FFC3F00
3FFE3F00
3FFE3F00
3F7F3F00
3F7F3F00
3F3FBF00
3F3FBF00
3F1FFF00
3F1FFF00
3F0FFF00
3F0FFF00
3F07FF00
3F07FF00
3F03FF00
3F03FF00
3F01FF00
3F01FF00
3F00FF00
3F00FF00
3F007F00
3F007F00
3F003F00
3F003F00
FFC0FFC0
FFC0FFC0
FFC0FFC0
FFC0FFC0
FFC0FFC0
FFC0FFC0
ENDCHAR
STARTCHAR 00D2.uni00D2
ENCODING 210
SWIDTH 1218 0
DWIDTH 26 0
BBX 26 54 0 0
BITMAP
03F00000
03F80000
01FC0000
00FE0000
007F0000
003F0000
00000000
00000000
003F0000
00FFC000
03FFF000
07FFF800
0FFFFC00
0FFFFC00
1FC0FE00
1F807E00
3F807F00
3F003F00
3F003F00
7F003F80
7E001F80
7E001F80
FC000FC0
FC000FC0
FC000FC0
FC000FC0
FC000FC0
FC000FC0
FC000FC0
FC000FC0
FC000FC0
FC000FC0
FC000FC0
FC000FC0
FC000FC0
FC000FC0
FC000FC0
FC000FC0
FC000FC0
FC000FC0
7E001F80
7E001F80
7F003F80
3F003F00
3F003F00
3F807F00
1F807E00
1FC0FE00
0FFFFC00
0FFFFC00
07FFF800
03FFF000
00FFC000
003F0000
ENDCHAR
STARTCHAR 00D3.uni00D3
ENCODING 211
SWIDTH 1218 0
DWIDTH 26 0
BBX 26 56 0 0
BITMAP
0000FC00
0001FC00
0003F800
0007F000
000FE000
001FC000
003F8000
003F0000
00000000
00000000
003F0000
00FFC000
03FFF000
07FFF800
0FFFFC00
0FFFFC00
1FC0FE00
1F807E00
3F807F00
3F003F00
3F003F00
7F003F80
7E001F80
7E001F80
FC000FC0
FC000FC0
FC000FC0
FC000FC0
FC000FC0
FC000FC0
FC000FC0
FC000FC0
FC000FC0
FC000FC0
FC000FC0
FC000FC0
FC000FC0
FC000FC0
FC000FC0
FC000FC0
FC000FC0
FC000FC0
7E001F80
7E001F80
7F003F80
3F003F00
3F003F00
3F807F00
1F807E00
1FC0FE00
0FFFFC00
0FFFFC00
07FFF800
03FFF000
00FFC000
003F0000
ENDCHAR
STARTCHAR 00D4.uni00D4
ENCODING 212
SWIDTH 1218 0
DWIDTH 26 0
BBX 26 58 0 0
BITMAP
000C0000
001E0000
003F0000
007F8000
00FFC000
01FFE000
03FFF000
07F3F800
0FE1FC00
0FC0FC00
00000000
00000000
003F0000
00FFC000
03FFF000
07FFF800
0FFFFC00
0FFFFC00
1FC0FE00
1F807E00
3F807F00
3F003F00
3F003F00
7F003F80
7E001F80
7E001F80
FC000FC0
FC000FC0
FC000FC0
FC000FC0
FC000FC0
FC000FC0
FC000FC0
FC000FC0
FC000FC0
FC000FC0
FC000FC0
FC000FC0
FC000FC0
FC000FC0
FC000FC0
FC000FC0
FC000FC0
FC000FC0
7E001F80
7E001F80
7F003F80
3F003F00
3F003F00
3F807F00
1F807E00
1FC0FE00
0FFFFC00
0FFFFC00
07FFF800
03FFF000
00FFC000
003F0000
ENDCHAR
STARTCHAR 00D5.uni00D5
ENCODING 213
SWIDTH 1218 0
DWIDTH 26 0
BBX 26 56 0 0
BITMAP
003F0FC0
007F1FC0
00FE3F80
01FC7F00
03F8FE00
07F1FC00
0FE3F800
0FC3F000
00000000
00000000
003F0000
00FFC000
03FFF000
07FFF800
0FFFFC00
0FFFFC00
1FC0FE00
1F807E00
3F807F00
3F003F00
3F003F00
7F003F80
7E001F80
7E001F80
FC000FC0
FC000FC0
FC000FC0
FC000FC0
FC000FC0
FC000FC0
FC000FC0
FC000FC0
FC000FC0
FC000FC0
FC000FC0
FC000FC0
FC000FC0
FC000FC0
FC000FC0
FC000FC0
FC000FC0
FC000FC0
7E001F80
7E001F80
7F003F80
3F003F00
3F003F00
3F807F00
1F807E00
1FC0FE00
0FFFFC00
0FFFFC00
07FFF800
03FFF000
00FFC000
003F0000
ENDCHAR
STARTCHAR 00D6.uni00D6
ENCODING 214
SWIDTH 1218 0
DWIDTH 26 0
BBX 26 54 0 0
BITMAP
07807800
0FC0FC00
0FC0FC00
0FC0FC00
0FC0FC00
07807800
00000000
00000000
003F0000
00FFC000
03FFF000
07FFF800
0FFFFC00
0FFFFC00
1FC0FE00
1F807E00
3F807F00
3F003F00
3F003F00
7F003F80
7E001F80
7E001F80
FC000FC0
FC000FC0
FC000FC0
FC000FC0
FC000FC0
FC000FC0
FC000FC0
FC000FC0
FC000FC0
FC000FC0
FC000FC0
FC000FC0
FC000FC0
FC000FC0
FC000FC0
FC000FC0
FC000FC0
FC000FC0
7E001F80
7E001F80
7F003F80
3F003F00
3F003F00
3F807F00
1F807E00
1FC0FE00
0FFFFC00
0FFFFC00
07FFF800
03FFF000
00FFC000
003F0000
ENDCHAR
STARTCHAR 00D7.uni00D7
ENCODING 215
SWIDTH 1218 0
DWIDTH 26 0
BBX 22 24 2 4
BITMAP
FC00FC00
FE01FC00
FF03FC00
FF87FC00
FFCFFC00
FFFFFC00
7FFFF800
3FFFF000
1FFFE000
0FFFC000
07FF8000
03FF0000
03FF0000
07FF8000
0FFFC000
1FFFE000
3FFFF000
7FFFF800
FFFFFC00
FFCFFC00
FF87FC00
FF03FC00
FE01FC00
FC00FC00
ENDCHAR
STARTCHAR 00D8.uni00D8
ENCODING 216
SWIDTH 1218 0
DWIDTH 26 0
BBX 26 30 0 0
BITMAP
00FFC3C0
03FFF3C0
0FFFFFC0
1FFFFFC0
3FFFFF80
3FFFFF00
7F80FF80
7E00FF80
FE00FFC0
FC01FFC0
FC03FFC0
FC07FFC0
FC0FEFC0
FC1FCFC0
FC3F8FC0
FC7F0FC0
FCFE0FC0
FDFC0FC0
FFF80FC0
FFF00FC0
FFE00FC0
FFC01FC0
FFC01F80
7F807F80
3FFFFF00
7FFFFF00
FFFFFE00
FFFFFC00
F3FFF000
F1FFE000
ENDCHAR
STARTCHAR 00D9.uni00D9
ENCODING 217
SWIDTH 1218 0
DWIDTH 26 0
BBX 30 56 -2 0
BITMAP
03F00000
03F80000
01FC0000
00FE0000
007F0000
003F8000
001FC000
000FC000
00000000
00000000
FFC00FFC
FFC00FFC
FFC00FFC
FFC00FFC
3F0003F0
3F0003F0
3F0003F0
3F0003F0
3F0003F0
3F0003F0
3F0003F0
3F0003F0
3F0003F0
3F0003F0
3F0003F0
3F0003F0
3F0003F0
3F0003F0
3F0003F0
3F0003F0
3F0003F0
3F0003F0
3F0003F0
3F0003F0
3F0003F0
3F0003F0
3F0003F0
3F0003F0
3F0003F0
3F0003F0
3F0003F0
3F0003F0
3F0003F0
3F0003F0
3F0003F0
3F0003F0
3F8007F0
3F8007F0
1F8007E0
1FC00FE0
1FFFFFE0
0FFFFFC0
0FFFFFC0
07FFFF80
03FFFF00
00FFFC00
ENDCHAR
STARTCHAR 00DA.uni00DA
ENCODING 218
SWIDTH 1218 0
DWIDTH 26 0
BBX 30 56 -2 0
BITMAP
00003F00
00007F00
0000FE00
0001FC00
0003F800
0007F000
000FE000
000FC000
00000000
00000000
FFC00FFC
FFC00FFC
FFC00FFC
FFC00FFC
3F0003F0
3F0003F0
3F0003F0
3F0003F0
3F0003F0
3F0003F0
3F0003F0
3F0003F0
3F0003F0
3F0003F0
3F0003F0
3F0003F0
3F0003F0
3F0003F0
3F0003F0
3F0003F0
3F0003F0
3F0003F0
3F0003F0
3F0003F0
3F0003F0
3F0003F0
3F0003F0
3F0003F0
3F0003F0
3F0003F0
3F0003F0
3F0003F0
3F0003F0
3F0003F0
3F0003F0
3F0003F0
3F8007F0
3F8007F0
1F8007E0
1FC00FE0
1FFFFFE0
0FFFFFC0
0FFFFFC0
07FFFF80
03FFFF00
00FFFC00
ENDCHAR
STARTCHAR 00DB.uni00DB
ENCODING 219
SWIDTH 1218 0
DWIDTH 26 0
BBX 30 56 -2 0
BITMAP
003F03F0
007F07F0
00FE0FE0
01FC1FC0
03F83F80
07F07F00
0FE0FE00
0FC0FC00
00000000
00000000
FFC00FFC
FFC00FFC
FFC00FFC
FFC00FFC
3F0003F0
3F0003F0
3F0003F0
3F0003F0
3F0003F0
3F0003F0
3F0003F0
3F0003F0
3F0003F0
3F0003F0
3F0003F0
3F0003F0
3F0003F0
3F0003F0
3F0003F0
3F0003F0
3F0003F0
3F0003F0
3F0003F0
3F0003F0
3F0003F0
3F0003F0
3F0003F0
3F0003F0
3F0003F0
3F0003F0
3F0003F0
3F0003F0
3F0003F0
3F0003F0
3F0003F0
3F0003F0
3F8007F0
3F8007F0
1F8007E0
1FC00FE0
1FFFFFE0
0FFFFFC0
0FFFFFC0
07FFFF80
03FFFF00
00FFFC00
ENDCHAR
STARTCHAR 00DC.uni00DC
ENCODING 220
SWIDTH 1218 0
DWIDTH 26 0
BBX 30 54 -2 0
BITMAP
01E01E00
03F03F00
03F03F00
03F03F00
03F03F00
01E01E00
00000000
00000000
FFC00FFC
FFC00FFC
FFC00FFC
FFC00FFC
3F0003F0
3F0003F0
3F0003F0
3F0003F0
3F0003F0
3F0003F0
3F0003F0
3F0003F0
3F0003F0
3F0003F0
3F0003F0
3F0003F0
3F0003F0
3F0003F0
3F0003F0
3F0003F0
3F0003F0
3F0003F0
3F0003F0
3F0003F0
3F0003F0
3F0003F0
3F0003F0
3F0003F0
3F0003F0
3F0003F0
3F0003F0
3F0003F0
3F0003F0
3F0003F0
3F0003F0
3F0003F0
3F8007F0
3F8007F0
1F8007E0
1FC00FE0
1FFFFFE0
0FFFFFC0
0FFFFFC0
07FFFF80
03FFFF00
00FFFC00
ENDCHAR
STARTCHAR 00DD.uni00DD
ENCODING 221
SWIDTH 1218 0
DWIDTH 26 0
BBX 30 54 -2 0
BITMAP
0000FC00
0001FC00
0003F800
0007F000
000FE000
000FC000
00000000
00000000
FFE01FFC
FFE01FFC
FFE01FFC
FFE01FFC
FFE01FFC
FFE01FFC
1F8007E0
1F8007E0
0FC00FC0
0FC00FC0
07E01F80
07E01F80
03F03F00
03F03F00
01F87E00
01F87E00
00FCFC00
00FCFC00
007FF800
007FF800
003FF000
003FF000
001FE000
001FE000
000FC000
000FC000
000FC000
000FC000
000FC000
000FC000
000FC000
000FC000
000FC000
000FC000
000FC000
000FC000
000FC000
000FC000
000FC000
000FC000
00FFFC00
00FFFC00
00FFFC00
00FFFC00
00FFFC00
00FFFC00
ENDCHAR
STARTCHAR 00DE.uni00DE
ENCODING 222
SWIDTH 1218 0
DWIDTH 26 0
BBX 26 46 0 0
BITMAP
FFFF0000
FFFF0000
FFFF0000
FFFF0000
FFFF0000
FFFF0000
3F000000
3F000000
3F000000
3F000000
3FFFC000
3FFFF000
3FFFFC00
3FFFFE00
3FFFFF00
3FFFFF00
3F00FF80
3F003F80
3F001FC0
3F001FC0
3F000FC0
3F000FC0
3F000FC0
3F000FC0
3F000FC0
3F000FC0
3F001FC0
3F001FC0
3F003F80
3F00FF80
3FFFFF00
3FFFFF00
3FFFFE00
3FFFFC00
3FFFF000
3FFFC000
3F000000
3F000000
3F000000
3F000000
FFFF0000
FFFF0000
FFFF0000
FFFF0000
FFFF0000
FFFF0000
ENDCHAR
STARTCHAR 00DF.uni00DF
ENCODING 223
SWIDTH 1218 0
DWIDTH 26 0
BBX 26 46 0 0
BITMAP
03FF0000
07FFC000
0FFFE000
0FFFE000
1FFFF000
1FFFF800
3F03FC00
3F01FC00
3F00FC00
3F00FC00
3F00FC00
3F00FC00
3F00FC00
3F00FC00
3F01FC00
3F03FC00
3FFFF000
3FFFE000
3FFFC000
3FFFF000
3FFFFC00
3FFFFE00
3F00FF00
3F007F80
3F003FC0
3F001FC0
3F000FC0
3F000FC0
3F000FC0
3F000FC0
3F000FC0
3F000FC0
3F000FC0
3F000FC0
3F000FC0
3F000FC0
3F001FC0
3F001FC0
3F3E1F80
7F3E7F80
FF3FFF00
FF3FFF00
FF3FFE00
FF3FFC00
FE1FF000
FC0FC000
ENDCHAR
STARTCHAR 00E0.uni00E0
ENCODING 224
SWIDTH 1218 0
DWIDTH 26 0
BBX 26 42 0 0
BITMAP
0FC00000
0FE00000
07F00000
03F80000
01FC0000
00FE0000
007F0000
003F0000
00000000
00000000
00000000
00000000
07FFE000
1FFFF800
3FFFFC00
7FFFFE00
7FFFFE00
FFFFFF00
FE007F00
FC003F00
00003F00
00003F00
07FFBF00
1FFFFF00
3FFFFF00
7FFFFF00
7FFFFF00
FFFFFF00
FE007F00
FC003F00
FC003F00
FC003F00
FC003F00
FC003F00
FC003F00
FE007F00
FFFFFF00
7FFFFF80
7FFFFFC0
3FFFFFC0
1FFFEFC0
07FF8FC0
ENDCHAR
STARTCHAR 00E1.uni00E1
ENCODING 225
SWIDTH 1218 0
DWIDTH 26 0
BBX 26 42 0 0
BITMAP
0000FC00
0001FC00
0003F800
0007F000
000FE000
001FC000
003F8000
003F0000
00000000
00000000
00000000
00000000
07FFE000
1FFFF800
3FFFFC00
7FFFFE00
7FFFFE00
FFFFFF00
FE007F00
FC003F00
00003F00
00003F00
07FFBF00
1FFFFF00
3FFFFF00
7FFFFF00
7FFFFF00
FFFFFF00
FE007F00
FC003F00
FC003F00
FC003F00
FC003F00
FC003F00
FC003F00
FE007F00
FFFFFF00
7FFFFF80
7FFFFFC0
3FFFFFC0
1FFFEFC0
07FF8FC0
ENDCHAR
STARTCHAR 00E2.uni00E2
ENCODING 226
SWIDTH 1218 0
DWIDTH 26 0
BBX 26 44 0 0
BITMAP
000C0000
001E0000
003F0000
007F8000
00FFC000
01FFE000
03FFF000
07F3F800
0FE1FC00
0FC0FC00
00000000
00000000
00000000
00000000
07FFE000
1FFFF800
3FFFFC00
7FFFFE00
7FFFFE00
FFFFFF00
FE007F00
FC003F00
00003F00
00003F00
07FFBF00
1FFFFF00
3FFFFF00
7FFFFF00
7FFFFF00
FFFFFF00
FE007F00
FC003F00
FC003F00
FC003F00
FC003F00
FC003F00
FC003F00
FE007F00
FFFFFF00
7FFFFF80
7FFFFFC0
3FFFFFC0
1FFFEFC0
07FF8FC0
ENDCHAR
STARTCHAR 00E3.uni00E3
ENCODING 227
SWIDTH 1218 0
DWIDTH 26 0
BBX 26 42 0 0
BITMAP
03F03C00
07F83C00
0FFC3C00
0FFE3C00
0FBF3C00
0F3F7C00
0F1FFC00
0F0FFC00
0F07F800
0F03F000
00000000
00000000
07FFE000
1FFFF800
3FFFFC00
7FFFFE00
7FFFFE00
FFFFFF00
FE007F00
FC003F00
00003F00
00003F00
07FFBF00
1FFFFF00
3FFFFF00
7FFFFF00
7FFFFF00
FFFFFF00
FE007F00
FC003F00
FC003F00
FC003F00
FC003F00
FC003F00
FC003F00
FE007F00
FFFFFF00
7FFFFF80
7FFFFFC0
3FFFFFC0
1FFFEFC0
07FF8FC0
ENDCHAR
STARTCHAR 00E4.uni00E4
ENCODING 228
SWIDTH 1218 0
DWIDTH 26 0
BBX 26 40 0 0
BITMAP
07807800
0FC0FC00
0FC0FC00
0FC0FC00
0FC0FC00
07807800
00000000
00000000
00000000
00000000
07FFE000
1FFFF800
3FFFFC00
7FFFFE00
7FFFFE00
FFFFFF00
FE007F00
FC003F00
00003F00
00003F00
07FFBF00
1FFFFF00
3FFFFF00
7FFFFF00
7FFFFF00
FFFFFF00
FE007F00
FC003F00
FC003F00
FC003F00
FC003F00
FC003F00
FC003F00
FE007F00
FFFFFF00
7FFFFF80
7FFFFFC0
3FFFFFC0
1FFFEFC0
07FF8FC0
ENDCHAR
STARTCHAR 00E5.uni00E5
ENCODING 229
SWIDTH 1218 0
DWIDTH 26 0
BBX 26 44 0 0
BITMAP
003F0000
007F8000
00FFC000
00F3C000
00E1C000
00E1C000
00F3C000
00FFC000
007F8000
003F0000
00000000
00000000
00000000
00000000
07FFE000
1FFFF800
3FFFFC00
7FFFFE00
7FFFFE00
FFFFFF00
FE007F00
FC003F00
00003F00
00003F00
07FFBF00
1FFFFF00
3FFFFF00
7FFFFF00
7FFFFF00
FFFFFF00
FE007F00
FC003F00
FC003F00
FC003F00
FC003F00
FC003F00
FC003F00
FE007F00
FFFFFF00
7FFFFF80
7FFFFFC0
3FFFFFC0
1FFFEFC0
07FF8FC0
ENDCHAR
STARTCHAR 00E6.uni00E6
ENCODING 230
SWIDTH 1218 0
DWIDTH 26 0
BBX 26 30 0 0
BITMAP
3FF0FC00
7FF3FF00
FFFFFF80
FFFFFF80
F83F0FC0
F03E07C0
E03C03C0
E03C03C0
003C03C0
003C03C0
0FFFFFC0
1FFFFFC0
3FFFFFC0
3FFFFFC0
7C3C0000
783C0000
F03C0000
F03C0000
F03C0000
F03C0000
F03C0000
F03C0000
F03C03C0
F03C03C0
F83E07C0
FC3F8FC0
7FFFFF00
7FFFFF00
3FE3FC00
0FC0FC00
ENDCHAR
STARTCHAR 00E7.uni00E7
ENCODING 231
SWIDTH 1218 0
DWIDTH 26 0
BBX 26 42 0 -12
BITMAP
00FFC000
03FFF000
0FFFFC00
1FFFFE00
3FFFFF00
7FFFFF80
7F807F80
FE001FC0
FE001FC0
FC000FC0
FC000FC0
FC000000
FC000000
FC000000
FC000000
FC000000
FC000000
FC000000
FC000000
FC000FC0
FC000FC0
FE001FC0
FE001FC0
7F807F80
7FFFFF80
3FFFFF00
1FFFFE00
0FFFFC00
03FFF000
00FFC000
000F0000
000F0000
000F0000
000F8000
0007C000
0383E000
0381F000
03C0F000
01E1F000
00F3E000
007FC000
003F8000
ENDCHAR
STARTCHAR 00E8.uni00E8
ENCODING 232
SWIDTH 1218 0
DWIDTH 26 0
BBX 26 42 0 0
BITMAP
0FC00000
0FE00000
07F00000
03F80000
01FC0000
00FE0000
007F0000
003F0000
00000000
00000000
00000000
00000000
00FFC000
03FFF000
0FFFFC00
1FFFFE00
3FFFFF00
7FFFFF80
7F807F80
FE001FC0
FE001FC0
FC000FC0
FC000FC0
FFFFFFC0
FFFFFFC0
FFFFFFC0
FFFFFFC0
FFFFFFC0
FC000000
FC000000
FC000000
FC000FC0
FC000FC0
FE001FC0
FE001FC0
7F807F80
7FFFFF80
3FFFFF00
1FFFFE00
0FFFFC00
03FFF000
00FFC000
ENDCHAR
STARTCHAR 00E9.uni00E9
ENCODING 233
SWIDTH 1218 0
DWIDTH 26 0
BBX 26 42 0 0
BITMAP
0000FC00
0001FC00
0003F800
0007F000
000FE000
001FC000
003F8000
003F0000
00000000
00000000
00000000
00000000
00FFC000
03FFF000
0FFFFC00
1FFFFE00
3FFFFF00
7FFFFF80
7F807F80
FE001FC0
FE001FC0
FC000FC0
FC000FC0
FFFFFFC0
FFFFFFC0
FFFFFFC0
FFFFFFC0
FFFFFFC0
FC000000
FC000000
FC000000
FC000FC0
FC000FC0
FE001FC0
FE001FC0
7F807F80
7FFFFF80
3FFFFF00
1FFFFE00
0FFFFC00
03FFF000
00FFC000
ENDCHAR
STARTCHAR 00EA.uni00EA
ENCODING 234
SWIDTH 1218 0
DWIDTH 26 0
BBX 26 44 0 0
BITMAP
000C0000
001E0000
003F0000
007F8000
00FFC000
01FFE000
03FFF000
07F3F800
0FE1FC00
0FC0FC00
00000000
00000000
00000000
00000000
00FFC000
03FFF000
0FFFFC00
1FFFFE00
3FFFFF00
7FFFFF80
7F807F80
FE001FC0
FE001FC0
FC000FC0
FC000FC0
FFFFFFC0
FFFFFFC0
FFFFFFC0
FFFFFFC0
FFFFFFC0
FC000000
FC000000
FC000000
FC000FC0
FC000FC0
FE001FC0
FE001FC0
7F807F80
7FFFFF80
3FFFFF00
1FFFFE00
0FFFFC00
03FFF000
00FFC000
ENDCHAR
STARTCHAR 00EB.uni00EB
ENCODING 235
SWIDTH 1218 0
DWIDTH 26 0
BBX 26 38 0 0
BITMAP
00E1C000
01F3E000
01F3E000
01F3E000
00E1C000
00000000
00000000
00000000
00FFC000
03FFF000
0FFFFC00
1FFFFE00
3FFFFF00
7FFFFF80
7F807F80
FE001FC0
FE001FC0
FC000FC0
FC000FC0
FFFFFFC0
FFFFFFC0
FFFFFFC0
FFFFFFC0
FFFFFFC0
FC000000
FC000000
FC000000
FC000FC0
FC000FC0
FE001FC0
FE001FC0
7F807F80
7FFFFF80
3FFFFF00
1FFFFE00
0FFFFC00
03FFF000
00FFC000
ENDCHAR
STARTCHAR 00EC.uni00EC
ENCODING 236
SWIDTH 1218 0
DWIDTH 26 0
BBX 24 42 1 0
BITMAP
1F800000
1FC00000
0FE00000
07F00000
03F80000
01FC0000
00FE0000
007E0000
00000000
00000000
00000000
00000000
1FFE0000
1FFE0000
FFFE0000
FFFE0000
FFFE0000
FFFE0000
F87E0000
F87E0000
007E0000
007E0000
007E0000
007E0000
007E0000
007E0000
007E0000
007E0000
007E0000
007E0000
007E0000
007E0000
007E0000
007E0000
007E0000
007E0000
FFFFFF00
FFFFFF00
FFFFFF00
FFFFFF00
FFFFFF00
FFFFFF00
ENDCHAR
STARTCHAR 00ED.uni00ED
ENCODING 237
SWIDTH 1218 0
DWIDTH 26 0
BBX 24 42 1 0
BITMAP
0001F800
0003F800
0007F000
000FE000
001FC000
003F8000
007F0000
007E0000
00000000
00000000
00000000
00000000
1FFE0000
1FFE0000
FFFE0000
FFFE0000
FFFE0000
FFFE0000
F87E0000
F87E0000
007E0000
007E0000
007E0000
007E0000
007E0000
007E0000
007E0000
007E0000
007E0000
007E0000
007E0000
007E0000
007E0000
007E0000
007E0000
007E0000
FFFFFF00
FFFFFF00
FFFFFF00
FFFFFF00
FFFFFF00
FFFFFF00
ENDCHAR
STARTCHAR 00EE.uni00EE
ENCODING 238
SWIDTH 1218 0
DWIDTH 26 0
BBX 24 44 1 0
BITMAP
00600000
00F00000
01F80000
03FC0000
07FE0000
0FFF0000
1FFF8000
3F9FC000
7F0FE000
7E07E000
00000000
00000000
00000000
00000000
1FFE0000
1FFE0000
FFFE0000
FFFE0000
FFFE0000
FFFE0000
F87E0000
F87E0000
007E0000
007E0000
007E0000
007E0000
007E0000
007E0000
007E0000
007E0000
007E0000
007E0000
007E0000
007E0000
007E0000
007E0000
007E0000
007E0000
FFFFFF00
FFFFFF00
FFFFFF00
FFFFFF00
FFFFFF00
FFFFFF00
ENDCHAR
STARTCHAR 00EF.uni00EF
ENCODING 239
SWIDTH 1218 0
DWIDTH 26 0
BBX 24 40 1 0
BITMAP
0F078000
1F8FC000
1F8FC000
1F8FC000
1F8FC000
0F078000
00000000
00000000
00000000
00000000
1FFE0000
1FFE0000
FFFE0000
FFFE0000
FFFE0000
FFFE0000
F87E0000
F87E0000
007E0000
007E0000
007E0000
007E0000
007E0000
007E0000
007E0000
007E0000
007E0000
007E0000
007E0000
007E0000
007E0000
007E0000
007E0000
007E0000
FFFFFF00
FFFFFF00
FFFFFF00
FFFFFF00
FFFFFF00
FFFFFF00
ENDCHAR
STARTCHAR 00F0.uni00F0
ENCODING 240
SWIDTH 1218 0
DWIDTH 26 0
BBX 26 46 0 0
BITMAP
0003C000
0007C000
000FC000
000FC000
3FDF8000
7FFF0000
FFFF0000
FFFF8000
F3FFC000
E7FFE000
0FFFF000
0FBFF000
0F07F800
0F03F800
0001FC00
0000FC00
003FFE00
00FFFE00
03FFFE00
07FFFE00
0FFFFF00
1FFFFF00
3FC07F80
3F803F80
7F003F80
7E001F80
FC000FC0
FC000FC0
FC000FC0
FC000FC0
FC000FC0
FC000FC0
FC000FC0
FC000FC0
FC000FC0
FC000FC0
FC000FC0
FE001F80
7E001F80
7F807F00
3FFFFF00
3FFFFE00
1FFFFE00
0FFFFC00
07FFF800
01FFE000
ENDCHAR
STARTCHAR 00F1.uni00F1
ENCODING 241
SWIDTH 1218 0
DWIDTH 26 0
BBX 28 42 -1 0
BITMAP
01F81E00
03FC1E00
07FE1E00
07FF1E00
07DF9E00
079FBE00
078FFE00
0787FE00
0783FC00
0781F800
00000000
00000000
FE7FF000
FEFFFC00
FFFFFF00
FFFFFF00
FFFFFF80
FFFFFF80
7FC03FC0
7F801FC0
7F801FC0
7F000FC0
7E0007E0
7E0007E0
7E0007E0
7E0007E0
7E0007E0
7E0007E0
7E0007E0
7E0007E0
7E0007E0
7E0007E0
7E0007E0
7E0007E0
7E0007E0
7E0007E0
FF000FF0
FF000FF0
FF000FF0
FF000FF0
FF000FF0
FF000FF0
ENDCHAR
STARTCHAR 00F2.uni00F2
ENCODING 242
SWIDTH 1218 0
DWIDTH 26 0
BBX 26 42 0 0
BITMAP
0FC00000
0FE00000
07F00000
03F80000
01FC0000
00FE0000
007F0000
003F0000
00000000
00000000
00000000
00000000
00FFC000
03FFF000
0FFFFC00
1FFFFE00
3FFFFF00
7FFFFF80
7F807F80
FE001FC0
FE001FC0
FC000FC0
FC000FC0
FC000FC0
FC000FC0
FC000FC0
FC000FC0
FC000FC0
FC000FC0
FC000FC0
FC000FC0
FC000FC0
FC000FC0
FE001FC0
FE001FC0
7F807F80
7FFFFF80
3FFFFF00
1FFFFE00
0FFFFC00
03FFF000
00FFC000
ENDCHAR
STARTCHAR 00F3.uni00F3
ENCODING 243
SWIDTH 1218 0
DWIDTH 26 0
BBX 26 42 0 0
BITMAP
0000FC00
0001FC00
0003F800
0007F000
000FE000
001FC000
003F8000
003F0000
00000000
00000000
00000000
00000000
00FFC000
03FFF000
0FFFFC00
1FFFFE00
3FFFFF00
7FFFFF80
7F807F80
FE001FC0
FE001FC0
FC000FC0
FC000FC0
FC000FC0
FC000FC0
FC000FC0
FC000FC0
FC000FC0
FC000FC0
FC000FC0
FC000FC0
FC000FC0
FC000FC0
FE001FC0
FE001FC0
7F807F80
7FFFFF80
3FFFFF00
1FFFFE00
0FFFFC00
03FFF000
00FFC000
ENDCHAR
STARTCHAR 00F4.uni00F4
ENCODING 244
SWIDTH 1218 0
DWIDTH 26 0
BBX 26 44 0 0
BITMAP
000C0000
001E0000
003F0000
007F8000
00FFC000
01FFE000
03FFF000
07F3F800
0FE1FC00
0FC0FC00
00000000
00000000
00000000
00000000
00FFC000
03FFF000
0FFFFC00
1FFFFE00
3FFFFF00
7FFFFF80
7F807F80
FE001FC0
FE001FC0
FC000FC0
FC000FC0
FC000FC0
FC000FC0
FC000FC0
FC000FC0
FC000FC0
FC000FC0
FC000FC0
FC000FC0
FC000FC0
FC000FC0
FE001FC0
FE001FC0
7F807F80
7FFFFF80
3FFFFF00
1FFFFE00
0FFFFC00
03FFF000
00FFC000
ENDCHAR
STARTCHAR 00F5.uni00F5
ENCODING 245
SWIDTH 1218 0
DWIDTH 26 0
BBX 26 42 0 0
BITMAP
003F0FC0
007F1FC0
00FE3F80
01FC7F00
03F8FE00
07F1FC00
0FE3F800
0FC3F000
00000000
00000000
00000000
00000000
00FFC000
03FFF000
0FFFFC00
1FFFFE00
3FFFFF00
7FFFFF80
7F807F80
FE001FC0
FE001FC0
FC000FC0
FC000FC0
FC000FC0
FC000FC0
FC000FC0
FC000FC0
FC000FC0
FC000FC0
FC000FC0
FC000FC0
FC000FC0
FC000FC0
FE001FC0
FE001FC0
7F807F80
7FFFFF80
3FFFFF00
1FFFFE00
0FFFFC00
03FFF000
00FFC000
ENDCHAR
STARTCHAR 00F6.uni00F6
ENCODING 246
SWIDTH 1218 0
DWIDTH 26 0
BBX 26 40 0 0
BITMAP
07807800
0FC0FC00
0FC0FC00
0FC0FC00
0FC0FC00
07807800
00000000
00000000
00000000
00000000
00FFC000
03FFF000
0FFFFC00
1FFFFE00
3FFFFF00
7FFFFF80
7F807F80
FE001FC0
FE001FC0
FC000FC0
FC000FC0
FC000FC0
FC000FC0
FC000FC0
FC000FC0
FC000FC0
FC000FC0
FC000FC0
FC000FC0
FC000FC0
FC000FC0
FE001FC0
FE001FC0
7F807F80
7FFFFF80
3FFFFF00
1FFFFE00
0FFFFC00
03FFF000
00FFC000
ENDCHAR
STARTCHAR 00F7.uni00F7
ENCODING 247
SWIDTH 1218 0
DWIDTH 26 0
BBX 22 27 2 4
BITMAP
00780000
00FC0000
00FC0000
00FC0000
00FC0000
00780000
00000000
00000000
00000000
00000000
FFFFFC00
FFFFFC00
FFFFFC00
FFFFFC00
FFFFFC00
FFFFFC00
FFFFFC00
00000000
00000000
00000000
00000000
00780000
00FC0000
00FC0000
00FC0000
00FC0000
00780000
ENDCHAR
STARTCHAR 00F8.uni00F8
ENCODING 248
SWIDTH 1218 0
DWIDTH 26 0
BBX 26 30 0 0
BITMAP
00FFC3C0
03FFF3C0
0FFFFFC0
1FFFFFC0
3FFFFF80
3FFFFF00
7F80FF80
7E00FF80
FE00FFC0
FC01FFC0
FC03FFC0
FC07FFC0
FC0FEFC0
FC1FCFC0
FC3F8FC0
FC7F0FC0
FCFE0FC0
FDFC0FC0
FFF80FC0
FFF00FC0
FFE00FC0
FFC01FC0
FFC01F80
7F807F80
3FFFFF00
7FFFFF00
FFFFFE00
FFFFFC00
F3FFF000
F1FFE000
ENDCHAR
STARTCHAR 00F9.uni00F9
ENCODING 249
SWIDTH 1218 0
DWIDTH 26 0
BBX 29 42 -2 0
BITMAP
03F00000
03F80000
01FC0000
00FE0000
007F0000
003F8000
001FC000
000FC000
00000000
00000000
00000000
00000000
FF000FF0
FF000FF0
FF000FF0
FF000FF0
FF000FF0
FF000FF0
3F0003F0
3F0003F0
3F0003F0
3F0003F0
3F0003F0
3F0003F0
3F0003F0
3F0003F0
3F0003F0
3F0003F0
3F0003F0
3F0003F0
3F0003F0
3F0003F0
1F8007F0
1FC00FF0
1FC00FF0
1FE01FF0
0FFFFFF8
0FFFFFF8
07FFFFF8
07FFFFF8
01FFFBF8
007FF3F8
ENDCHAR
STARTCHAR 00FA.uni00FA
ENCODING 250
SWIDTH 1218 0
DWIDTH 26 0
BBX 29 42 -2 0
BITMAP
0000FC00
0001FC00
0003F800
0007F000
000FE000
001FC000
003F8000
003F0000
00000000
00000000
00000000
00000000
FF000FF0
FF000FF0
FF000FF0
FF000FF0
FF000FF0
FF000FF0
3F0003F0
3F0003F0
3F0003F0
3F0003F0
3F0003F0
3F0003F0
3F0003F0
3F0003F0
3F0003F0
3F0003F0
3F0003F0
3F0003F0
3F0003F0
3F0003F0
1F8007F0
1FC00FF0
1FC00FF0
1FE01FF0
0FFFFFF8
0FFFFFF8
07FFFFF8
07FFFFF8
01FFFBF8
007FF3F8
ENDCHAR
STARTCHAR 00FB.uni00FB
ENCODING 251
SWIDTH 1218 0
DWIDTH 26 0
BBX 29 42 -2 0
BITMAP
000FC3F0
001FC7F0
003F8FE0
007F1FC0
00FE3F80
01FC7F00
03F8FE00
03F0FC00
00000000
00000000
00000000
00000000
FF000FF0
FF000FF0
FF000FF0
FF000FF0
FF000FF0
FF000FF0
3F0003F0
3F0003F0
3F0003F0
3F0003F0
3F0003F0
3F0003F0
3F0003F0
3F0003F0
3F0003F0
3F0003F0
3F0003F0
3F0003F0
3F0003F0
3F0003F0
1F8007F0
1FC00FF0
1FC00FF0
1FE01FF0
0FFFFFF8
0FFFFFF8
07FFFFF8
07FFFFF8
01FFFBF8
007FF3F8
ENDCHAR
STARTCHAR 00FC.uni00FC
ENCODING 252
SWIDTH 1218 0
DWIDTH 26 0
BBX 29 40 -2 0
BITMAP
01E07800
03F0FC00
03F0FC00
03F0FC00
03F0FC00
01E07800
00000000
00000000
00000000
00000000
FF000FF0
FF000FF0
FF000FF0
FF000FF0
FF000FF0
FF000FF0
3F0003F0
3F0003F0
3F0003F0
3F0003F0
3F0003F0
3F0003F0
3F0003F0
3F0003F0
3F0003F0
3F0003F0
3F0003F0
3F0003F0
3F0003F0
3F0003F0
1F8007F0
1FC00FF0
1FC00FF0
1FE01FF0
0FFFFFF8
0FFFFFF8
07FFFFF8
07FFFFF8
01FFFBF8
007FF3F8
ENDCHAR
STARTCHAR 00FD.uni00FD
ENCODING 253
SWIDTH 1218 0
DWIDTH 26 0
BBX 30 54 -2 -12
BITMAP
03F00000
03F80000
01FC0000
00FE0000
007F0000
003F8000
001FC000
000FC000
00000000
00000000
00000000
00000000
FFE01FFC
FFE01FFC
FFE01FFC
FFE01FFC
FFE01FFC
FFE01FFC
1F8007E0
1F8007E0
1F8007E0
0FC00FC0
0FC00FC0
0FC00FC0
07E01F80
07E01F80
07E01F80
03F03F00
03F03F00
03F03F00
01F87E00
01F87E00
01F87E00
00FCFC00
00FCFC00
00FCFC00
007FF800
007FF800
007FF800
003FF000
003FF000
003FF000
001FE000
001FE000
001FE000
000FC000
000FC000
001FC000
03FF8000
03FF8000
03FF8000
03FF0000
03FE0000
03FC0000
ENDCHAR
STARTCHAR 00FE.uni00FE
ENCODING 254
SWIDTH 1218 0
DWIDTH 26 0
BBX 22 30 0 0
BITMAP
FFFF0000
FFFF0000
FFFF0000
FFFF0000
FFFF0000
FFFF0000
3F000000
3F000000
3FFFF000
3FFFF800
3FFFFC00
3FFFFC00
3F01FC00
3F00FC00
3F00FC00
3F01FC00
3FFFFC00
3FFFFC00
3FFFF800
3FFFF000
3F000000
3F000000
3F000000
3F000000
FFFF0000
FFFF0000
FFFF0000
FFFF0000
FFFF0000
FFFF0000
ENDCHAR
STARTCHAR 00FF.uni00FF
ENCODING 255
SWIDTH 1218 0
DWIDTH 26 0
BBX 30 52 -2 -12
BITMAP
01E01E00
03F03F00
03F03F00
03F03F00
03F03F00
01E01E00
00000000
00000000
00000000
00000000
FFE01FFC
FFE01FFC
FFE01FFC
FFE01FFC
FFE01FFC
FFE01FFC
1F8007E0
1F8007E0
1F8007E0
0FC00FC0
0FC00FC0
0FC00FC0
07E01F80
07E01F80
07E01F80
03F03F00
03F03F00
03F03F00
01F87E00
01F87E00
01F87E00
00FCFC00
00FCFC00
00FCFC00
007FF800
007FF800
007FF800
003FF000
003FF000
003FF000
001FE000
001FE000
001FE000
000FC000
000FC000
001FC000
03FF8000
03FF8000
03FF8000
03FF0000
03FE0000
03FC0000
ENDCHAR
ENDFONT
